<svg width="357" height="237" viewBox="0 0 357 237" fill="none" xmlns="http://www.w3.org/2000/svg">
<g clip-path="url(#clip0)">
<path d="M150.245 88.148L143.974 84.2342L147.828 74.4655C148.198 73.527 148.831 72.7145 149.65 72.1251C150.47 71.5357 151.442 71.1941 152.451 71.1411C153.459 71.0881 154.461 71.3255 155.338 71.8251C156.215 72.3247 156.929 73.0654 157.397 73.9591C157.864 74.8527 158.064 75.8616 157.973 76.8656C157.883 77.8696 157.505 78.8264 156.885 79.6222L150.245 88.148Z" fill="#FEB8B8"/>
<path d="M117.259 193.99L108.625 190.251L113.31 180.622L120.282 184.697L117.259 193.99Z" fill="#FEB8B8"/>
<path d="M113.907 209.382L103.976 199.268C103.028 198.309 102.499 197.015 102.503 195.668C102.508 194.32 103.046 193.029 104 192.077L109 187.084C109.18 186.903 109.4 186.766 109.643 186.685C109.886 186.605 110.144 186.583 110.397 186.62C110.651 186.658 110.891 186.755 111.1 186.903C111.309 187.051 111.48 187.245 111.599 187.472C112.83 189.861 114.506 191.149 116.677 191.214C117.979 191.254 118.184 191.205 118.523 192.461L118.105 201.922L119.823 203.874C120.467 204.606 120.825 205.546 120.83 206.52C120.835 207.494 120.487 208.438 119.851 209.176C119.486 209.599 119.038 209.942 118.534 210.184C118.031 210.425 117.482 210.56 116.924 210.579C116.366 210.598 115.809 210.502 115.29 210.296C114.771 210.09 114.3 209.779 113.907 209.382Z" fill="#2F2E41"/>
<path d="M120.851 186.384L111.837 182.079L119.283 135.114L82.8813 138.143C71.3719 139.101 61.8717 128.823 64.2046 117.527C64.8838 114.108 66.7657 111.045 69.51 108.892L105.566 113.197L128.928 116.405C131.273 116.727 133.462 117.758 135.201 119.361C136.94 120.964 138.145 123.061 138.654 125.369C139.059 127.208 139.008 129.118 138.506 130.933L120.851 186.384Z" fill="#2F2E41"/>
<path d="M58.3405 236.676C89.7256 236.676 115.168 211.268 115.168 179.926C115.168 148.584 89.7256 123.177 58.3405 123.177C26.9554 123.177 1.5127 148.584 1.5127 179.926C1.5127 211.268 26.9554 236.676 58.3405 236.676Z" fill="#E6E6E6"/>
<path d="M144.366 81.8863L153.38 86.1915L139.04 109.719C138.411 110.749 137.492 111.572 136.398 112.083C135.304 112.594 134.083 112.771 132.888 112.593C131.747 112.422 130.678 111.933 129.802 111.183C128.927 110.433 128.281 109.452 127.939 108.352L111.919 77.7537C111.374 76.7128 111.06 75.567 110.999 74.3941C110.937 73.2211 111.129 72.0487 111.562 70.9565C111.994 69.8644 112.657 68.8781 113.506 68.0648C114.354 67.2515 115.369 66.6303 116.479 66.2434H116.479C117.508 65.8849 118.599 65.7351 119.687 65.803C120.775 65.8709 121.839 66.1551 122.815 66.6389C123.792 67.1226 124.662 67.7962 125.374 68.6202C126.087 69.4441 126.627 70.4019 126.964 71.4372L134.568 94.8018L144.366 81.8863Z" fill="#3F3D56"/>
<path d="M104.945 70.411C107.888 70.8182 110.91 69.8495 113.366 68.1797C115.822 66.5098 117.763 64.1823 119.406 61.7102C122.182 57.5286 124.184 52.8832 125.316 47.9951C126.252 49.1185 127.477 49.9659 128.859 50.4461C130.242 50.9263 131.729 51.0212 133.161 50.7206C137.834 49.673 140.636 44.2284 139.725 39.5332C138.813 34.838 134.956 31.1156 130.554 29.2312C126.153 27.3468 121.247 27.0355 116.458 27.0462C113.3 27.0532 110.081 27.2002 107.115 28.2819C104.149 29.3635 101.431 31.5192 100.377 34.492C99.7165 36.3558 99.7381 38.4187 98.9869 40.248C97.6231 43.569 94.0858 45.3825 90.7661 46.7585C87.4464 48.1345 83.8374 49.5318 81.8797 52.5421C79.669 55.9414 80.307 60.6856 82.7432 63.9276C85.1794 67.1695 89.0921 69.0493 93.0739 69.8354C97.0557 70.6215 101.158 70.4271 105.212 70.2295" fill="#2F2E41"/>
<path d="M103.541 193.99L94.9077 190.251L99.5923 180.622L106.565 184.697L103.541 193.99Z" fill="#FEB8B8"/>
<path d="M100.19 209.382L90.2594 199.268C89.3117 198.309 88.7822 197.015 88.7866 195.668C88.7911 194.32 89.329 193.029 90.283 192.077L95.2827 187.084C95.4629 186.903 95.6834 186.766 95.9263 186.685C96.1691 186.605 96.4276 186.583 96.6806 186.62C96.9337 186.658 97.1744 186.755 97.3831 186.903C97.5918 187.051 97.7627 187.245 97.882 187.472C99.1128 189.861 100.789 191.149 102.961 191.214C104.262 191.254 104.467 191.205 104.806 192.461L104.388 201.922L106.106 203.874C106.75 204.606 107.108 205.546 107.113 206.52C107.118 207.494 106.77 208.438 106.134 209.176C105.769 209.599 105.321 209.942 104.818 210.184C104.314 210.425 103.765 210.56 103.207 210.579C102.649 210.598 102.092 210.502 101.573 210.296C101.054 210.09 100.583 209.779 100.19 209.382Z" fill="#2F2E41"/>
<path d="M105.958 188.732L96.9443 184.427L104.391 137.461L67.9887 140.491C56.4793 141.449 46.9792 131.17 49.312 119.875C49.9912 116.456 51.8731 113.393 54.6174 111.239L90.6737 115.544L114.036 118.752C116.38 119.074 118.569 120.106 120.308 121.709C122.047 123.312 123.252 125.409 123.761 127.717C124.167 129.556 124.116 131.466 123.613 133.281L105.958 188.732Z" fill="#2F2E41"/>
<path d="M119.088 60.3605C126.988 60.3605 133.393 53.9648 133.393 46.0753C133.393 38.1858 126.988 31.79 119.088 31.79C111.187 31.79 104.783 38.1858 104.783 46.0753C104.783 53.9648 111.187 60.3605 119.088 60.3605Z" fill="#FEB8B8"/>
<path d="M109.094 79.5382L103.215 63.4917C107.389 59.0685 108.308 53.6404 106.742 47.4453L123.594 56.8383L109.094 79.5382Z" fill="#FEB8B8"/>
<path d="M97.3364 117.501C86.873 120.989 73.026 119.848 55.6762 113.915C55.2073 113.753 54.7852 113.479 54.4465 113.117C54.1078 112.755 53.8628 112.315 53.7326 111.837C53.6025 111.359 53.5913 110.856 53.6999 110.373C53.8085 109.889 54.0336 109.44 54.3558 109.063C66.0578 95.3268 76.5567 81.8737 85.2208 68.852C88.4905 64.6303 93.1419 61.6904 98.362 60.5461L106.35 58.7949L118.5 65.0569L121.684 66.8542C122.435 67.278 123.092 67.8501 123.614 68.5355C124.136 69.221 124.514 70.0055 124.723 70.8412C124.932 71.6769 124.968 72.5464 124.83 73.3967C124.692 74.2469 124.382 75.0602 123.919 75.7869C119.04 87.6899 112.681 98.5568 101.647 106.151L97.3364 117.501Z" fill="#3F3D56"/>
<path d="M119.419 43.2964C121.177 46.0895 123.79 48.2427 126.87 49.4367C129.051 50.2756 131.819 50.484 133.456 48.818C134.642 47.6112 134.878 45.7539 134.71 44.0714C134.185 38.8198 130.232 34.2467 125.328 32.279C120.424 30.3113 114.763 30.7414 109.869 32.7335C105.251 34.6131 100.866 38.4638 100.618 43.4372C100.49 45.9859 101.415 48.7924 100.044 50.9465C99.0126 52.5689 97.0196 53.2281 95.2345 53.9465C93.4495 54.665 91.5336 55.7987 91.1672 57.6855C90.9181 58.968 91.4933 60.3067 92.3963 61.2519C93.3455 62.157 94.4687 62.8603 95.698 63.3192C98.6091 64.5571 101.814 65.3288 104.941 64.8502C108.069 64.3717 111.093 62.4697 112.317 59.556C113.26 57.3122 113.067 54.7802 112.958 52.3494C112.849 49.9186 112.882 47.3297 114.182 45.2716C115.481 43.2134 118.499 42.0611 120.441 43.5303" fill="#2F2E41"/>
<path opacity="0.2" d="M84.5991 84.4307C84.5991 84.4307 95.9647 112.61 98.7081 114.175C101.451 115.741 101.451 111.83 101.451 111.83L84.5991 84.4307Z" fill="black"/>
<path d="M173.808 75.2436L104.826 86.4499C104.487 86.5045 104.141 86.4227 103.862 86.2225C103.584 86.0223 103.396 85.7199 103.341 85.3818L100.557 68.2939C100.502 67.9556 100.584 67.6095 100.785 67.3315C100.985 67.0534 101.288 66.8661 101.627 66.8107L170.608 55.6044C170.947 55.5498 171.294 55.6316 171.572 55.8318C171.851 56.0321 172.038 56.3345 172.094 56.6726L174.877 73.7604C174.932 74.0987 174.85 74.4448 174.649 74.7229C174.449 75.0009 174.146 75.1882 173.808 75.2436Z" fill="#EA5042"/>
<path d="M112.169 80.6056C115.171 80.6056 117.604 78.1753 117.604 75.1773C117.604 72.1793 115.171 69.749 112.169 69.749C109.167 69.749 106.733 72.1793 106.733 75.1773C106.733 78.1753 109.167 80.6056 112.169 80.6056Z" fill="white"/>
<path d="M123.978 69.5934C123.86 69.6123 123.747 69.6542 123.646 69.7167C123.545 69.7791 123.457 69.8609 123.387 69.9574C123.317 70.0538 123.267 70.163 123.24 70.2788C123.213 70.3945 123.208 70.5145 123.228 70.6319C123.247 70.7492 123.289 70.8617 123.351 70.9628C123.414 71.0639 123.496 71.1517 123.593 71.2211C123.69 71.2905 123.799 71.3403 123.915 71.3674C124.031 71.3946 124.151 71.3986 124.269 71.3794L166.424 64.5311C166.541 64.512 166.654 64.47 166.755 64.4075C166.856 64.345 166.944 64.2632 167.014 64.1668C167.083 64.0704 167.133 63.9613 167.16 63.8456C167.188 63.73 167.192 63.6101 167.173 63.4928C167.153 63.3756 167.111 63.2632 167.049 63.1622C166.986 63.0611 166.904 62.9734 166.808 62.904C166.711 62.8345 166.602 62.7848 166.486 62.7575C166.37 62.7303 166.25 62.7261 166.133 62.7451L123.978 69.5934Z" fill="white"/>
<path d="M124.851 74.9507C124.733 74.9696 124.62 75.0115 124.519 75.0739C124.418 75.1364 124.33 75.2182 124.26 75.3146C124.19 75.4111 124.14 75.5203 124.113 75.636C124.086 75.7518 124.082 75.8717 124.101 75.9891C124.12 76.1065 124.162 76.2189 124.225 76.3201C124.287 76.4212 124.369 76.5089 124.466 76.5784C124.563 76.6478 124.672 76.6975 124.788 76.7247C124.904 76.7518 125.024 76.7559 125.142 76.7366L167.297 69.8883C167.534 69.8496 167.746 69.7185 167.886 69.5238C168.026 69.3292 168.083 69.0869 168.045 68.8503C168.006 68.6136 167.875 68.4019 167.68 68.2617C167.486 68.1215 167.243 68.0642 167.006 68.1024L124.851 74.9507Z" fill="white"/>
<path d="M123.594 94.8013L117.324 90.8876L121.177 81.1188C121.548 80.1803 122.18 79.3679 123 78.7784C123.82 78.189 124.792 77.8474 125.801 77.7944C126.809 77.7414 127.811 77.9788 128.688 78.4785C129.564 78.9781 130.279 79.7188 130.746 80.6124C131.213 81.506 131.413 82.5149 131.323 83.5189C131.232 84.5229 130.854 85.4798 130.235 86.2755L123.594 94.8013Z" fill="#FEB8B8"/>
<path d="M117.324 88.5396L126.338 92.8448L111.997 116.372C111.369 117.403 110.45 118.225 109.356 118.736C108.261 119.248 107.04 119.425 105.845 119.246C104.705 119.075 103.635 118.586 102.76 117.836C101.885 117.086 101.239 116.105 100.896 115.005L84.8768 84.407C84.3319 83.3661 84.0178 82.2203 83.9561 81.0474C83.8944 79.8745 84.0864 78.702 84.519 77.6099C84.9517 76.5177 85.6149 75.5314 86.4635 74.7181C87.312 73.9048 88.3261 73.2836 89.4366 72.8967H89.4366C90.4659 72.5382 91.5566 72.3885 92.6446 72.4564C93.7326 72.5243 94.7961 72.8084 95.7727 73.2922C96.7493 73.7759 97.6194 74.4495 98.3318 75.2735C99.0443 76.0975 99.5849 77.0552 99.9218 78.0905L107.526 101.455L117.324 88.5396Z" fill="#3F3D56"/>
<path d="M342.679 173.292C337.486 180.622 336.115 222.343 335.809 235.717C335.801 236.018 335.793 236.304 335.789 236.574H322.645C322.484 236.288 322.335 236.006 322.194 235.717C314.403 220.359 318.725 201.945 318.953 201.013C318.361 203.941 321.038 212.426 324.063 220.645C325.909 195.373 341.692 174.568 342.679 173.292Z" fill="#E6E6E6"/>
<path d="M357 235.717L356.843 236.574H0V235.717H357Z" fill="#21335C"/>
<path d="M325.263 77.4536H219.445C218.926 77.453 218.428 77.2466 218.06 76.8797C217.693 76.5129 217.486 76.0155 217.486 75.4967V49.284C217.486 48.7652 217.693 48.2678 218.06 47.901C218.428 47.5341 218.926 47.3278 219.445 47.3271H325.263C325.782 47.3278 326.28 47.5341 326.648 47.901C327.015 48.2678 327.222 48.7652 327.222 49.284V75.4967C327.222 76.0155 327.015 76.5129 326.648 76.8797C326.28 77.2466 325.782 77.453 325.263 77.4536ZM219.445 48.1099C219.134 48.1102 218.835 48.2341 218.614 48.4542C218.394 48.6743 218.27 48.9727 218.27 49.284V75.4967C218.27 75.808 218.394 76.1064 218.614 76.3266C218.835 76.5467 219.134 76.6705 219.445 76.6708H325.263C325.575 76.6705 325.873 76.5467 326.094 76.3266C326.314 76.1064 326.438 75.808 326.439 75.4967V49.284C326.438 48.9727 326.314 48.6743 326.094 48.4542C325.873 48.2341 325.575 48.1102 325.263 48.1099H219.445Z" fill="#E6E6E6"/>
<path d="M233.162 70.6097C237.708 70.6097 241.393 66.9299 241.393 62.3908C241.393 57.8516 237.708 54.1719 233.162 54.1719C228.617 54.1719 224.932 57.8516 224.932 62.3908C224.932 66.9299 228.617 70.6097 233.162 70.6097Z" fill="#E6E6E6"/>
<path d="M252.171 56.9111C251.807 56.9111 251.458 57.0554 251.201 57.3123C250.943 57.5692 250.799 57.9177 250.799 58.281C250.799 58.6442 250.943 58.9927 251.201 59.2496C251.458 59.5064 251.807 59.6508 252.171 59.6508H316.837C317.2 59.6508 317.549 59.5064 317.807 59.2496C318.064 58.9927 318.208 58.6442 318.208 58.281C318.208 57.9177 318.064 57.5692 317.807 57.3123C317.549 57.0554 317.2 56.9111 316.837 56.9111H252.171Z" fill="#E6E6E6"/>
<path d="M252.171 65.1299C251.807 65.1299 251.458 65.2742 251.201 65.5311C250.943 65.788 250.799 66.1364 250.799 66.4997C250.799 66.863 250.943 67.2114 251.201 67.4683C251.458 67.7252 251.807 67.8695 252.171 67.8695H316.837C317.2 67.8695 317.549 67.7252 317.807 67.4683C318.064 67.2114 318.208 66.863 318.208 66.4997C318.208 66.1364 318.064 65.788 317.807 65.5311C317.549 65.2742 317.2 65.1299 316.837 65.1299H252.171Z" fill="#E6E6E6"/>
<path d="M325.263 121.288H219.445C218.926 121.287 218.428 121.081 218.06 120.714C217.693 120.347 217.486 119.849 217.486 119.331V93.118C217.486 92.5992 217.693 92.1018 218.06 91.735C218.428 91.3681 218.926 91.1617 219.445 91.1611H325.263C325.782 91.1617 326.28 91.3681 326.648 91.735C327.015 92.1018 327.222 92.5992 327.222 93.118V119.331C327.222 119.849 327.015 120.347 326.648 120.714C326.28 121.081 325.782 121.287 325.263 121.288ZM219.445 91.9439C219.134 91.9442 218.835 92.068 218.614 92.2882C218.394 92.5083 218.27 92.8067 218.27 93.118V119.331C218.27 119.642 218.394 119.94 218.614 120.161C218.835 120.381 219.134 120.504 219.445 120.505H325.263C325.575 120.504 325.873 120.381 326.094 120.161C326.314 119.94 326.438 119.642 326.439 119.331V93.118C326.438 92.8067 326.314 92.5083 326.094 92.2882C325.873 92.068 325.575 91.9442 325.263 91.9439H219.445Z" fill="#E6E6E6"/>
<path d="M233.162 114.444C237.708 114.444 241.393 110.764 241.393 106.225C241.393 101.686 237.708 98.0059 233.162 98.0059C228.617 98.0059 224.932 101.686 224.932 106.225C224.932 110.764 228.617 114.444 233.162 114.444Z" fill="#E6E6E6"/>
<path d="M252.171 100.745C251.807 100.745 251.458 100.889 251.201 101.146C250.943 101.403 250.799 101.752 250.799 102.115C250.799 102.478 250.943 102.827 251.201 103.084C251.458 103.34 251.807 103.485 252.171 103.485H316.837C317.2 103.485 317.549 103.34 317.807 103.084C318.064 102.827 318.208 102.478 318.208 102.115C318.208 101.752 318.064 101.403 317.807 101.146C317.549 100.889 317.2 100.745 316.837 100.745H252.171Z" fill="#E6E6E6"/>
<path d="M252.171 108.964C251.807 108.964 251.458 109.108 251.201 109.365C250.943 109.622 250.799 109.97 250.799 110.334C250.799 110.697 250.943 111.045 251.201 111.302C251.458 111.559 251.807 111.703 252.171 111.703H316.837C317.2 111.703 317.549 111.559 317.807 111.302C318.064 111.045 318.208 110.697 318.208 110.334C318.208 109.97 318.064 109.622 317.807 109.365C317.549 109.108 317.2 108.964 316.837 108.964H252.171Z" fill="#E6E6E6"/>
<path d="M272.354 33.5514C269.098 33.5514 265.916 32.5873 263.209 30.7811C260.502 28.9749 258.392 26.4077 257.147 23.4041C255.901 20.4005 255.575 17.0954 256.21 13.9067C256.845 10.7181 258.413 7.78918 260.715 5.49031C263.017 3.19144 265.95 1.62589 269.143 0.991636C272.336 0.35738 275.645 0.682905 278.653 1.92704C281.661 3.17118 284.232 5.27805 286.04 7.98124C287.849 10.6844 288.814 13.8625 288.814 17.1136C288.81 21.4717 287.074 25.6498 283.988 28.7315C280.902 31.8131 276.718 33.5465 272.354 33.5514ZM272.354 1.45854C269.253 1.45854 266.223 2.37669 263.645 4.09689C261.067 5.81709 259.057 8.26208 257.871 11.1227C256.684 13.9833 256.374 17.131 256.979 20.1677C257.583 23.2045 259.077 25.994 261.269 28.1834C263.461 30.3728 266.255 31.8638 269.296 32.4678C272.337 33.0719 275.489 32.7619 278.353 31.577C281.218 30.3921 283.666 28.3855 285.389 25.8111C287.111 23.2366 288.031 20.2099 288.031 17.1136C288.026 12.9631 286.373 8.98388 283.434 6.04901C280.495 3.11414 276.51 1.46325 272.354 1.45854Z" fill="#EA5042"/>
<path d="M278.849 15.4918H273.978V10.6274C273.978 10.1973 273.807 9.78488 273.502 9.48079C273.198 9.1767 272.785 9.00586 272.354 9.00586C271.923 9.00586 271.51 9.1767 271.206 9.48079C270.901 9.78488 270.73 10.1973 270.73 10.6274V15.4918H265.859C265.428 15.4918 265.015 15.6627 264.711 15.9668C264.406 16.2708 264.235 16.6833 264.235 17.1133C264.235 17.5434 264.406 17.9558 264.711 18.2599C265.015 18.564 265.428 18.7348 265.859 18.7348H270.73V23.5993C270.73 24.0293 270.901 24.4418 271.206 24.7459C271.51 25.0499 271.923 25.2208 272.354 25.2208C272.785 25.2208 273.198 25.0499 273.502 24.7459C273.807 24.4418 273.978 24.0293 273.978 23.5993V18.7348H278.849C279.279 18.7348 279.692 18.564 279.997 18.2599C280.302 17.9558 280.473 17.5434 280.473 17.1133C280.473 16.6833 280.302 16.2709 279.997 15.9668C279.692 15.6627 279.279 15.4918 278.849 15.4918V15.4918Z" fill="#EA5042"/>
</g>
<defs>
<clipPath id="clip0">
<rect width="357" height="236" fill="white" transform="translate(0 0.675781)"/>
</clipPath>
</defs>
</svg>
