<svg width="276" height="241" viewBox="0 0 276 241" fill="none" xmlns="http://www.w3.org/2000/svg">
<g clip-path="url(#clip0)">
<path d="M174.329 57.5132H173.015V21.5122C173.015 18.7759 172.476 16.0664 171.429 13.5384C170.382 11.0104 168.847 8.71345 166.912 6.77861C164.977 4.84376 162.68 3.30896 160.152 2.26184C157.624 1.21471 154.915 0.675771 152.178 0.675781H75.9053C73.1691 0.675772 70.4596 1.21471 67.9316 2.26184C65.4036 3.30896 63.1066 4.84377 61.1717 6.77861C59.2369 8.71345 57.7021 11.0104 56.6549 13.5384C55.6078 16.0664 55.0688 18.7759 55.0688 21.5122V219.017C55.0688 221.753 55.6078 224.462 56.6549 226.99C57.7021 229.518 59.2369 231.815 61.1717 233.75C63.1066 235.685 65.4036 237.22 67.9316 238.267C70.4596 239.314 73.1691 239.853 75.9053 239.853H152.178C154.915 239.853 157.624 239.314 160.152 238.267C162.68 237.22 164.977 235.685 166.912 233.75C168.847 231.815 170.382 229.518 171.429 226.99C172.476 224.462 173.015 221.753 173.015 219.017V83.1394H174.329L174.329 57.5132Z" fill="#3F3D56"/>
<path d="M241.238 230.033H0.0820312V230.705H241.238V230.033Z" fill="#3F3D56"/>
<path opacity="0.2" d="M153.019 6.09668H143.063C143.521 7.2192 143.696 8.43709 143.572 9.64307C143.448 10.849 143.03 12.0061 142.354 13.0123C141.677 14.0185 140.764 14.8429 139.694 15.413C138.624 15.9831 137.431 16.2813 136.218 16.2814H92.5225C91.3102 16.2813 90.1165 15.9831 89.0466 15.413C87.9767 14.8429 87.0634 14.0185 86.3872 13.0123C85.711 12.0061 85.2926 10.849 85.1689 9.64307C85.0452 8.43709 85.22 7.2192 85.6778 6.09668H76.3788C74.3354 6.09668 72.3119 6.49916 70.4241 7.28114C68.5362 8.06312 66.8208 9.20929 65.3759 10.6542C63.931 12.0991 62.7848 13.8145 62.0028 15.7024C61.2208 17.5902 60.8184 19.6136 60.8184 21.6571V218.872C60.8184 220.915 61.2208 222.939 62.0028 224.826C62.7848 226.714 63.931 228.43 65.3759 229.875C66.8208 231.32 68.5362 232.466 70.4241 233.248C72.3119 234.03 74.3354 234.432 76.3788 234.432H153.019C155.063 234.432 157.086 234.03 158.974 233.248C160.862 232.466 162.577 231.32 164.022 229.875C165.467 228.43 166.613 226.714 167.395 224.826C168.177 222.939 168.58 220.915 168.58 218.872V21.6571C168.58 19.6136 168.177 17.5902 167.395 15.7024C166.613 13.8145 165.467 12.0991 164.022 10.6542C162.577 9.20929 160.862 8.06312 158.974 7.28114C157.086 6.49916 155.063 6.09668 153.019 6.09668Z" fill="black"/>
<path d="M24.0361 230.669L23.6756 230.534C23.5964 230.504 15.7126 227.484 12.0195 220.635C8.32621 213.786 10.1346 205.539 10.1533 205.457L10.2384 205.081L10.5988 205.216C10.678 205.246 18.5616 208.267 22.2549 215.116C25.9482 221.965 24.1398 230.211 24.1211 230.294L24.0361 230.669ZM12.6109 220.316C15.7333 226.107 21.9633 229.075 23.5418 229.753C23.8419 228.061 24.7831 221.22 21.6635 215.434C18.5442 209.65 12.3117 206.677 10.7326 205.998C10.4323 207.69 9.49145 214.531 12.6109 220.316Z" fill="#3F3D56"/>
<path d="M14.8416 218.232C21.4786 222.225 24.0348 230.156 24.0348 230.156C24.0348 230.156 15.8302 231.613 9.19315 227.62C2.55613 223.627 0 215.696 0 215.696C0 215.696 8.2046 214.239 14.8416 218.232Z" fill="#EA5042"/>
<path d="M94.9271 77.8887H80.1616V81.4433H94.9271V77.8887Z" fill="#EA5042"/>
<path d="M146.059 77.8887H140.864V81.4433H146.059V77.8887Z" fill="#EA5042"/>
<path d="M156.45 77.8887H151.254V81.4433H156.45V77.8887Z" fill="#EA5042"/>
<path d="M135.396 77.8887H100.123V81.4433H135.396V77.8887Z" fill="#EA5042"/>
<path d="M127.466 100.857H122.271V104.412H127.466V100.857Z" fill="#EA5042"/>
<path d="M137.856 100.857H132.661V104.412H137.856V100.857Z" fill="#EA5042"/>
<path d="M116.802 100.857H81.5288V104.412H116.802V100.857Z" fill="#EA5042"/>
<path d="M137.309 85.8184H122.544V89.373H137.309V85.8184Z" fill="#EA5042"/>
<path d="M157.27 85.8184H142.505V89.373H157.27V85.8184Z" fill="#EA5042"/>
<path d="M77.1537 85.8184H71.9585V89.373H77.1537V85.8184Z" fill="#EA5042"/>
<path d="M117.622 85.8184H82.3491V89.373H117.622V85.8184Z" fill="#EA5042"/>
<path d="M91.9191 97.0293H106.685V93.4747H91.9191V97.0293Z" fill="#EA5042"/>
<path d="M71.9587 97.0293H86.7241V93.4747H71.9587V97.0293Z" fill="#EA5042"/>
<path d="M152.075 97.0293H157.27V93.4747H152.075V97.0293Z" fill="#EA5042"/>
<path d="M111.607 97.0293H146.88V93.4747H111.607V97.0293Z" fill="#EA5042"/>
<path d="M114.699 166.553C122.118 166.553 128.133 160.538 128.133 153.118C128.133 145.699 122.118 139.684 114.699 139.684C107.279 139.684 101.264 145.699 101.264 153.118C101.264 160.538 107.279 166.553 114.699 166.553Z" fill="#EA5042"/>
<path d="M201.326 73.7217C197.428 67.1346 189.715 66.8276 189.715 66.8276C189.715 66.8276 182.199 65.8665 177.378 75.8988C172.884 85.2498 166.682 94.2783 176.38 96.4673L178.131 91.0155L179.216 96.8732C180.597 96.9725 181.982 96.9961 183.365 96.9441C193.75 96.6088 203.64 97.0422 203.322 93.3156C202.898 88.3616 205.077 80.0599 201.326 73.7217Z" fill="#2F2E41"/>
<path d="M187.287 86.1274C187.287 86.1274 192.325 93.1807 189.302 98.8905C186.279 104.6 196.356 110.646 196.356 110.646L203.745 94.5242C203.745 94.5242 195.012 88.8144 197.363 83.4404L187.287 86.1274Z" fill="#FBBEBE"/>
<path d="M190.646 89.1509C195.469 89.1509 199.378 85.2411 199.378 80.4182C199.378 75.5953 195.469 71.6855 190.646 71.6855C185.823 71.6855 181.913 75.5953 181.913 80.4182C181.913 85.2411 185.823 89.1509 190.646 89.1509Z" fill="#FBBEBE"/>
<path d="M160.424 90.5124L167.722 81.0966C167.722 81.0966 170.292 71.227 174.013 71.7274C177.735 72.2277 172.543 83.5635 172.543 83.5635L165.292 93.9858L160.424 90.5124Z" fill="#FBBEBE"/>
<path d="M197.363 215.774L199.714 228.201L204.752 229.545L203.409 214.767L197.363 215.774Z" fill="#FBBEBE"/>
<path d="M248.08 202.339L257.149 214.767L260.843 216.446L263.866 211.408L254.798 199.652L248.08 202.339Z" fill="#FBBEBE"/>
<path d="M195.348 105.273L189.745 97.8972C189.745 97.8972 178.89 99.8988 177.883 100.906C176.875 101.914 180.57 120.387 180.57 120.387C180.57 120.387 181.241 125.425 184.264 128.112L187.287 130.127L212.142 125.089L213.076 114.03C213.417 110.002 212.912 105.948 211.594 102.126C210.276 98.3043 208.175 94.8001 205.424 91.8379L201.1 92.4291L195.348 105.273Z" fill="#575A89"/>
<path d="M179.226 101.577L177.547 100.905L169.822 100.234C169.822 100.234 167.135 99.562 167.807 98.2185C168.479 96.875 169.15 96.5391 167.807 96.2032C166.463 95.8674 166.127 95.5315 166.463 94.5239C166.799 93.5163 168.814 91.501 168.814 91.501L163.105 86.7988C163.105 86.7988 162.796 87.0174 162.296 87.4218C159.461 89.7171 150.491 97.9983 157.059 106.279C164.784 116.02 173.853 121.73 181.242 119.714L179.226 101.577Z" fill="#575A89"/>
<path d="M186.615 128.448V133.15C186.615 133.15 183.593 138.86 184.6 144.234C185.608 149.608 185.944 152.295 185.944 152.295C186.053 156.865 186.846 161.393 188.295 165.729C190.646 172.447 182.921 216.446 192.661 217.118C202.401 217.79 207.775 218.461 210.798 215.103C213.821 211.744 205.76 153.974 205.76 153.974C205.76 153.974 233.302 211.408 239.011 209.057C244.721 206.706 259.164 201.332 257.484 198.309C255.805 195.286 213.485 128.112 213.485 128.112L212.142 125.089L186.615 128.448Z" fill="#2F2E41"/>
<path d="M202.737 225.851C202.737 225.851 197.363 225.515 197.363 227.194C197.363 228.874 194.676 234.583 194.676 234.583C194.676 234.583 192.661 241.301 198.035 240.629C203.409 239.957 206.768 233.912 206.768 233.912L205.424 227.53L202.737 225.851Z" fill="#2F2E41"/>
<path d="M258.828 214.095C258.828 214.095 254.126 211.072 254.462 213.087C254.797 215.103 255.133 220.477 257.484 220.812C259.835 221.148 266.889 223.164 267.225 223.835C267.561 224.507 275.621 227.194 275.621 222.828C275.621 218.461 270.583 215.103 270.583 215.103L264.874 210.736C264.874 210.736 261.179 210.4 260.507 212.752C259.835 215.103 258.828 214.095 258.828 214.095Z" fill="#2F2E41"/>
<path d="M190.659 72.4386C193.739 72.4386 196.236 69.9418 196.236 66.8619C196.236 63.7819 193.739 61.2852 190.659 61.2852C187.579 61.2852 185.083 63.7819 185.083 66.8619C185.083 69.9418 187.579 72.4386 190.659 72.4386Z" fill="#2F2E41"/>
<path d="M184.495 65.3941C184.496 64.0168 185.005 62.6882 185.927 61.6644C186.848 60.6405 188.115 59.9938 189.485 59.8487C188.707 59.7659 187.921 59.8476 187.177 60.0886C186.433 60.3295 185.747 60.7243 185.166 61.2473C184.584 61.7702 184.119 62.4097 183.801 63.1241C183.482 63.8386 183.318 64.612 183.318 65.3941C183.318 66.1763 183.482 66.9497 183.801 67.6641C184.119 68.3786 184.584 69.018 185.166 69.541C185.747 70.064 186.433 70.4587 187.177 70.6997C187.921 70.9406 188.707 71.0223 189.485 70.9395C188.115 70.7945 186.848 70.1477 185.927 69.1239C185.005 68.1 184.496 66.7715 184.495 65.3941Z" fill="#2F2E41"/>
<path d="M199.602 73.0872L191.983 69.0957L181.46 70.7287L179.283 80.3441L184.703 80.1358L186.217 76.6031V80.0774L188.717 79.9813L190.168 74.3571L191.076 80.3441L199.966 80.1627L199.602 73.0872Z" fill="#2F2E41"/>
<path d="M199.147 129.225L187.396 129.543C187.396 129.543 177.368 131.494 177.931 127.447C178.494 123.4 188.276 124.815 188.276 124.815L198.983 123.182L199.147 129.225Z" fill="#FBBEBE"/>
<path d="M208.444 91.2675C209.035 91.1781 209.638 91.3025 210.145 91.6182C210.652 91.934 211.03 92.4204 211.211 92.9899C213.511 100.239 220.598 124.499 213.557 127.827C205.263 131.748 199.21 131.575 199.21 131.575L195.971 123.599L198.92 120.831L202.068 100.587L203.577 92.0048L208.444 91.2675Z" fill="#575A89"/>
<path opacity="0.4" d="M206.264 104.769L204.921 118.203L193.165 123.242L206.264 120.219V104.769Z" fill="black"/>
</g>
<defs>
<clipPath id="clip0">
<rect width="275.622" height="240" fill="white" transform="translate(0 0.675781)"/>
</clipPath>
</defs>
</svg>