<svg width="351" height="263" viewBox="0 0 351 263" fill="none" xmlns="http://www.w3.org/2000/svg">
<g clip-path="url(#clip0)">
<path d="M119.272 49.2471C119.272 49.2471 114.645 59.1344 93.3003 55.6757" stroke="#535461" stroke-width="2" stroke-miterlimit="10"/>
<path d="M89.937 85.8751C89.937 85.8751 106.362 70.2234 101.341 64.5381" stroke="#535461" stroke-width="2" stroke-miterlimit="10"/>
<path opacity="0.1" d="M175.5 263C272.426 263 351 256.671 351 248.863C351 241.055 272.426 234.725 175.5 234.725C78.574 234.725 0 241.055 0 248.863C0 256.671 78.574 263 175.5 263Z" fill="#EA5042"/>
<path d="M311.746 137.397C310.998 135.311 309.918 132.668 309.066 132.045C309.014 132.006 308.957 131.972 308.896 131.946H308.791V129.368L306.776 129.674C306.455 128.743 306.214 127.789 306.053 126.821C306.247 127.007 306.495 127.133 306.764 127.184C307.033 127.236 307.313 127.21 307.567 127.11C307.534 127.059 307.505 127.004 307.476 126.949L307.567 126.911C307.249 126.378 307.081 125.776 307.079 125.163C307.095 124.603 307.189 124.047 307.357 123.511C307.718 122.323 308.329 121.215 308.668 120.021C308.885 119.253 308.987 118.459 308.972 117.664C308.983 116.315 308.661 114.983 308.033 113.775C307.874 113.426 307.625 113.121 307.31 112.887C307.026 112.737 306.735 112.601 306.436 112.481C305.935 112.159 305.503 111.749 305.164 111.273C303.733 109.611 301.816 108.392 299.656 107.769C299.093 107.569 298.482 107.523 297.893 107.635C296.538 107.979 296.047 109.58 294.949 110.419C293.981 111.159 292.652 111.235 291.434 111.483C290.217 111.731 288.993 112.223 288.162 113.117C287.589 113.741 287.277 114.543 287.284 115.372C287.251 115.759 287.322 116.147 287.492 116.5C287.661 116.853 287.923 117.159 288.252 117.388C288.627 117.622 289.052 117.775 289.496 117.834C289.94 117.894 290.392 117.859 290.82 117.732C290.486 118.834 290.393 119.99 290.55 121.127C290.706 122.264 291.107 123.358 291.728 124.34C292.349 125.323 293.177 126.172 294.159 126.835C295.14 127.499 296.256 127.961 297.434 128.194L297.669 128.597C298.395 129.885 298.946 131.255 299.309 132.675C297.452 133.677 295.426 134.616 294.201 134.706C294.152 135.162 294.063 135.613 293.934 136.055C293.648 137.163 293.098 138.193 292.327 139.066C290.661 140.849 283.173 154.326 283.173 154.326C283.173 154.326 282.938 154.862 282.552 155.778C277.903 156.322 270.314 157.106 268.197 156.704L259.889 149.174C259.889 149.174 257.201 151.128 257.436 153.503L255.959 152.147C255.959 152.147 248.055 157.894 260.535 161.659L279.525 163.759C277.719 168.959 276.028 175.012 276.552 178.306H276.707C277.07 178.305 277.432 178.279 277.791 178.226L277.759 178.812L275.92 210.022C275.92 210.022 275.504 215.769 281.122 218.344C281.122 218.344 287.985 237.564 285.283 239.746C285.283 239.746 285.604 239.908 286.146 240.131L280.5 244.898C280.5 244.898 276.339 245.889 274.052 245.689C273.651 245.637 273.242 245.727 272.906 245.943C272.57 246.159 272.328 246.485 272.228 246.86C272.228 246.901 272.228 246.942 272.207 246.983V247.035C272.207 247.076 272.207 247.118 272.207 247.162C272.207 247.207 272.207 247.193 272.207 247.211C272.207 247.228 272.207 247.283 272.207 247.321C272.207 247.359 272.207 247.352 272.207 247.365C272.207 247.379 272.207 247.451 272.232 247.493V247.541C272.244 247.587 272.259 247.633 272.279 247.679L272.297 247.72C272.315 247.765 272.337 247.809 272.362 247.854V247.885C272.387 247.93 272.416 247.971 272.445 248.016L272.47 248.054C272.504 248.1 272.541 248.146 272.582 248.191L272.615 248.226C272.658 248.274 272.705 248.319 272.752 248.363L272.774 248.381L272.929 248.508L272.961 248.532C273.019 248.577 273.084 248.618 273.149 248.659L273.193 248.687C273.261 248.728 273.334 248.77 273.409 248.807H273.442L273.677 248.918H273.709L273.984 249.021L274.042 249.041L274.341 249.134H274.392L274.721 249.217H274.746L275.107 249.286H275.179L275.57 249.341H275.645L276.086 249.382C276.942 249.444 278.094 249.468 279.427 249.461C279.427 249.461 279.427 249.492 279.427 249.509C279.427 249.527 279.427 249.582 279.427 249.62V249.664C279.427 249.706 279.427 249.75 279.453 249.792V249.84C279.465 249.886 279.48 249.932 279.5 249.978L279.518 250.019C279.536 250.064 279.557 250.108 279.583 250.153V250.184C279.608 250.229 279.637 250.27 279.666 250.315L279.691 250.353C279.725 250.399 279.762 250.444 279.803 250.49L279.836 250.525C279.879 250.573 279.926 250.618 279.973 250.662L279.994 250.68L280.15 250.807L280.182 250.831C280.24 250.876 280.305 250.917 280.37 250.958L280.417 250.986C280.486 251.027 280.558 251.068 280.634 251.106H280.666L280.901 251.216H280.934L281.208 251.32L281.266 251.34L281.566 251.433H281.616L281.945 251.516H281.97L282.332 251.585H282.404L282.794 251.64H282.87L283.311 251.681C288.729 252.077 305.981 250.889 305.981 250.889V250.845V250.786C306.151 250.019 306.981 245.559 304.034 242.262C304.121 242.176 304.207 242.083 304.287 241.986C304.287 241.986 302 238.221 303.246 237.031C304.493 235.84 297.008 215.233 297.008 215.233C297.008 215.233 293.056 209.289 295.343 202.551C297.629 195.812 295.133 188.482 295.133 188.482C295.133 188.482 300.588 186.937 300.7 180.539C300.7 180.346 300.7 180.147 300.7 179.944C300.819 179.96 300.94 179.967 301.061 179.964C301.138 179.97 301.215 179.97 301.292 179.964C301.292 179.964 300.252 176.399 301.502 173.821C302.752 171.244 305.453 173.622 307.95 163.122C309.756 155.523 311.345 146.782 312.086 142.528C312.406 140.817 312.289 139.057 311.746 137.397ZM264.278 159.691L262.381 157.97C263.01 158.218 263.707 158.462 264.487 158.696L271.639 159.488C268.446 159.763 265.481 159.918 264.278 159.691Z" fill="url(#paint0_linear)"/>
<path d="M282.382 158.686C282.382 158.686 267.67 160.634 264.603 160.062L256.414 152.643C256.414 152.643 248.648 158.29 260.911 161.986L283.813 164.536L282.382 158.686Z" fill="#FDC2CC"/>
<path opacity="0.05" d="M282.382 158.686C282.382 158.686 267.67 160.634 264.603 160.062L256.414 152.643C256.414 152.643 248.648 158.29 260.911 161.986L283.813 164.536L282.382 158.686Z" fill="black"/>
<path d="M287.696 237.719L280.544 243.756C280.544 243.756 276.458 244.73 274.208 244.533C271.957 244.337 270.939 247.844 276.252 248.233C281.566 248.622 298.525 247.455 298.525 247.455C298.525 247.455 300.162 241.226 295.256 237.719H287.696Z" fill="#47465A"/>
<path opacity="0.05" d="M287.696 237.719L280.544 243.756C280.544 243.756 276.458 244.73 274.208 244.533C271.957 244.337 270.939 247.844 276.252 248.233C281.566 248.622 298.525 247.455 298.525 247.455C298.525 247.455 300.162 241.226 295.256 237.719H287.696Z" fill="black"/>
<path opacity="0.3" d="M298.782 244.76C298.769 245.47 298.684 246.176 298.525 246.87C298.525 246.87 281.548 248.037 276.252 247.648C273.698 247.462 272.611 246.553 272.416 245.683C272.185 246.681 273.11 248.002 276.252 248.233C281.566 248.622 298.525 247.455 298.525 247.455C298.724 246.57 298.81 245.665 298.782 244.76Z" fill="white"/>
<path d="M296.072 127.334C296.072 127.334 300.569 133.37 298.933 137.459C297.297 141.547 307.516 133.174 307.516 133.174C307.516 133.174 304.247 127.723 305.879 121.883L296.072 127.334Z" fill="#FDC2CC"/>
<path d="M294.848 240.056L287.696 246.099C287.696 246.099 283.61 247.073 281.36 246.877C279.11 246.68 278.087 250.18 283.405 250.573C288.722 250.965 305.677 249.795 305.677 249.795C305.677 249.795 307.314 243.566 302.408 240.059L294.848 240.056Z" fill="#47465A"/>
<path d="M296.893 238.693C295.827 239.945 294.324 240.413 292.753 240.5C289.18 240.661 285.247 238.693 285.247 238.693C287.902 236.552 281.161 217.665 281.161 217.665C275.645 215.136 276.054 209.489 276.054 209.489L277.86 178.835L278.311 171.137L284.033 167.826L288.545 171.123L292.822 174.251C293.1 175.246 293.279 176.264 293.356 177.29C293.851 184.445 287.916 186.128 287.916 186.128C287.916 186.128 290.369 193.331 288.122 199.949C285.875 206.567 289.758 212.407 289.758 212.407C289.758 212.407 297.117 232.653 295.899 233.823C294.682 234.993 296.893 238.693 296.893 238.693Z" fill="#565171"/>
<path opacity="0.05" d="M296.893 238.693C295.827 239.945 294.324 240.413 292.753 240.5C289.18 240.661 285.247 238.693 285.247 238.693C287.902 236.552 281.161 217.665 281.161 217.665C275.645 215.136 276.054 209.489 276.054 209.489L277.86 178.835L278.311 171.137L284.033 167.826L288.545 171.123L292.822 174.251C293.1 175.246 293.279 176.264 293.356 177.29C293.851 184.445 287.916 186.128 287.916 186.128C287.916 186.128 290.369 193.331 288.122 199.949C285.875 206.567 289.758 212.407 289.758 212.407C289.758 212.407 297.117 232.653 295.899 233.823C294.682 234.993 296.893 238.693 296.893 238.693Z" fill="black"/>
<path d="M304.044 241.03C300.569 245.118 292.399 241.03 292.399 241.03C292.565 240.886 292.69 240.703 292.76 240.5C294.259 236.618 287.703 218.058 287.703 218.058C282.187 215.528 281.562 209.492 281.562 209.492L280.117 178.295L279.929 174.255L288.526 171.127L291.167 170.167L299.955 176.581C300.336 177.908 300.525 179.278 300.519 180.653C300.411 186.947 295.064 188.465 295.064 188.465C295.064 188.465 297.517 195.668 295.27 202.286C293.024 208.904 296.907 214.744 296.907 214.744C296.907 214.744 304.265 234.99 303.047 236.16C301.83 237.33 304.044 241.03 304.044 241.03Z" fill="#565171"/>
<path opacity="0.1" d="M300.519 180.66C298.753 180.419 295.177 178.392 293.338 177.291C292.637 176.871 292.19 176.602 292.19 176.602C292.19 176.602 290.351 171.736 285.446 175.436C283.85 176.668 282.049 177.638 280.117 178.302C279.379 178.551 278.617 178.733 277.842 178.846L278.293 171.148L284.015 167.837L288.527 171.134L291.167 170.174L299.956 176.582C300.337 177.91 300.527 179.282 300.519 180.66Z" fill="black"/>
<path d="M311.58 143.313C310.857 147.491 309.29 156.077 307.516 163.545C305.063 173.869 302.408 171.526 301.18 174.059C299.952 176.592 300.974 180.095 300.974 180.095C298.93 180.291 292.186 176.007 292.186 176.007C292.186 176.007 290.347 171.14 285.442 174.84C280.536 178.54 276.653 178.343 276.653 178.343C275.631 171.918 283.191 154.787 283.191 154.787C283.191 154.787 290.557 141.547 292.175 139.796C292.932 138.937 293.472 137.925 293.753 136.836C293.879 136.402 293.966 135.959 294.013 135.511C296.668 135.315 303.21 131.037 303.21 131.037L308.318 130.259V132.789C308.377 132.814 308.433 132.847 308.484 132.885C309.326 133.498 310.384 136.096 311.117 138.144C311.716 139.804 311.874 141.58 311.58 143.313Z" fill="#F68080"/>
<path opacity="0.1" d="M307.516 135.318C307.516 135.318 302.203 131.23 294.234 144.469C286.265 157.708 284.427 155.564 284.427 155.564C284.427 155.564 286.063 161.415 285.243 162.575C285.243 162.575 290.759 162.186 292.804 162.575C294.848 162.963 307.516 147.776 307.516 147.776C307.516 147.776 314.058 139.21 307.516 135.318Z" fill="black"/>
<path opacity="0.1" d="M307.314 134.537C307.314 134.537 302 130.465 294.032 143.688C286.063 156.91 284.228 154.786 284.228 154.786C284.228 154.786 290.557 161.404 292.601 161.783C294.646 162.161 307.314 146.984 307.314 146.984C307.314 146.984 313.848 138.432 307.314 134.537Z" fill="black"/>
<path opacity="0.1" d="M285.055 161.308C285.138 159.866 284.567 157.33 284.239 156.015C285.481 155.861 286.265 155.757 286.265 155.757L287.71 161.608L285.055 161.308Z" fill="black"/>
<path opacity="0.1" d="M306.086 122.271L296.278 127.712C296.691 128.287 297.072 128.882 297.42 129.495C297.986 129.605 298.562 129.66 299.139 129.66C301.758 129.66 302.979 127.041 304.558 125.279C304.456 123.875 305.648 123.841 306.086 122.271Z" fill="black"/>
<path d="M298.937 129.282C303.677 129.282 307.52 125.621 307.52 121.105C307.52 116.589 303.677 112.928 298.937 112.928C294.197 112.928 290.354 116.589 290.354 121.105C290.354 125.621 294.197 129.282 298.937 129.282Z" fill="#FDC2CC"/>
<path opacity="0.1" d="M288.079 114.491C288.945 113.645 290.07 113.082 291.293 112.884C292.485 112.639 293.793 112.564 294.747 111.851C295.83 111.029 296.307 109.466 297.636 109.119C298.215 109.008 298.814 109.053 299.367 109.25C301.491 109.86 303.377 111.058 304.785 112.691C305.117 113.159 305.54 113.562 306.031 113.878C306.325 113.997 306.612 114.13 306.891 114.277C307.197 114.508 307.438 114.807 307.592 115.148C308.55 116.992 308.771 119.104 308.213 121.092C307.881 122.265 307.281 123.353 306.927 124.533C306.573 125.713 306.483 127.025 307.133 128.067C306.505 128.374 305.71 127.988 305.327 127.431C304.944 126.873 304.814 126.185 304.604 125.541C304.196 124.276 303.43 123.141 302.39 122.262C301.747 121.718 300.584 121.353 300.147 122.055C299.974 122.327 299.984 122.671 299.836 122.953C299.544 123.504 298.698 123.614 298.139 123.298C297.599 122.943 297.22 122.407 297.077 121.797C296.235 119.085 294.801 117.378 291.756 118.538C290.622 118.972 289.285 119.264 288.194 118.521C286.756 117.54 287.049 115.599 288.079 114.491Z" fill="black"/>
<path d="M288.079 114.291C288.945 113.445 290.07 112.882 291.293 112.684C292.485 112.44 293.793 112.364 294.747 111.652C295.83 110.829 296.307 109.267 297.636 108.919C298.215 108.808 298.814 108.854 299.367 109.05C301.491 109.66 303.377 110.858 304.785 112.491C305.117 112.959 305.54 113.362 306.031 113.679C306.325 113.797 306.612 113.93 306.891 114.078C307.197 114.308 307.438 114.607 307.592 114.948C308.55 116.792 308.771 118.905 308.213 120.892C307.881 122.065 307.281 123.153 306.927 124.333C306.573 125.514 306.483 126.825 307.133 127.868C306.505 128.174 305.71 127.789 305.327 127.231C304.944 126.674 304.814 125.985 304.604 125.342C304.196 124.076 303.43 122.941 302.39 122.062C301.747 121.518 300.584 121.153 300.147 121.855C299.974 122.127 299.984 122.472 299.836 122.754C299.544 123.304 298.698 123.414 298.139 123.098C297.599 122.743 297.22 122.207 297.077 121.597C296.235 118.886 294.801 117.179 291.756 118.338C290.622 118.772 289.285 119.064 288.194 118.321C286.756 117.344 287.049 115.406 288.079 114.291Z" fill="#B96B6B"/>
<path opacity="0.05" d="M308.502 132.875H304.348C304.348 132.875 296.174 136.767 295.972 136.574C295.834 136.444 294.57 136.667 293.768 136.829C293.893 136.395 293.98 135.952 294.028 135.504C296.683 135.308 303.225 131.03 303.225 131.03L308.333 130.252V132.782C308.393 132.806 308.45 132.837 308.502 132.875Z" fill="black"/>
<path opacity="0.3" d="M305.934 247.097C305.922 247.807 305.836 248.513 305.678 249.207C305.678 249.207 288.7 250.373 283.405 249.985C280.851 249.799 279.763 248.89 279.568 248.019C279.337 249.018 280.262 250.339 283.405 250.57C288.718 250.958 305.678 249.792 305.678 249.792C305.877 248.907 305.963 248.002 305.934 247.097Z" fill="white"/>
<g opacity="0.05">
<path opacity="0.05" d="M283.506 174.644C280.749 176.709 278.311 177.573 276.711 177.917C276.711 178.061 276.74 178.206 276.762 178.344C276.762 178.344 280.645 178.54 285.55 174.84C286.31 174.22 287.208 173.773 288.176 173.532C287.118 173.047 285.579 173.078 283.506 174.644Z" fill="black"/>
<path opacity="0.05" d="M311.237 138.141C310.514 136.076 309.431 133.495 308.603 132.882C308.552 132.843 308.497 132.811 308.437 132.786C308.437 132.786 306.747 132.841 306.801 132.882C307.642 133.495 308.459 135.897 309.192 137.944C309.783 139.604 309.936 141.377 309.636 143.107C308.914 147.285 307.346 155.871 305.573 163.339C303.12 173.663 300.465 171.32 299.237 173.853C298.233 175.917 298.735 178.65 298.951 179.569C299.826 179.913 300.584 180.13 301.075 180.082C301.075 180.082 300.053 176.578 301.281 174.045C302.509 171.512 305.164 173.849 307.617 163.532C309.391 156.067 310.951 147.477 311.681 143.299C311.98 141.571 311.827 139.799 311.237 138.141Z" fill="black"/>
</g>
<path d="M102.663 246.374C102.663 246.374 97.9674 246.684 95.0415 241.9C94.4741 240.934 93.8035 240.027 93.0403 239.192C92.1032 237.728 91.6164 236.043 91.6352 234.329C91.7977 230.777 87.9074 211.313 87.9074 211.313C87.9074 211.313 88.395 203.896 84.501 199.267C81.9399 196.218 78.2555 187.477 76.034 181.861C76.1835 181.987 76.3633 182.077 76.5577 182.122L76.4674 181.637L76.5577 181.657L75.4235 175.631C73.7517 173.799 72.3426 171.764 71.2333 169.578L71.4934 169.526L74.9358 168.838C74.9358 168.838 80.5312 161.267 80.8743 157.536L81.3295 157.557H81.9725C89.0922 157.409 97.4725 158.331 97.4725 158.331C97.4725 158.307 97.4328 158.211 97.3894 158.059C97.172 157.31 97.0043 156.547 96.8873 155.778L97.2088 155.757L100.395 155.554C100.395 155.554 111.419 143.815 107.366 141.65C103.313 139.486 99.098 151.383 99.098 151.383L97.7362 151.62L97.375 151.686C97.4111 151.634 97.4472 151.586 97.4906 151.538C97.5339 151.49 79.4909 150.767 76.7347 146.596C76.7347 146.596 68.7878 140.57 68.4664 136.554C68.293 134.423 66.8914 133.291 65.6091 132.699C64.6284 132.254 63.5425 132.061 62.4592 132.138L58.7386 132.383L59.0023 132.83H58.8976C58.6644 132.32 58.4688 131.796 58.3124 131.261H58.3882C58.363 131.151 58.3377 131.04 58.316 130.917C59.4562 130.66 60.5307 130.188 61.4761 129.529C62.4214 128.87 63.2183 128.037 63.8195 127.079C64.4208 126.121 64.8141 125.058 64.9763 123.953C65.1385 122.847 65.0663 121.722 64.7638 120.644C65.1244 120.688 65.49 120.679 65.8475 120.616C67.2129 120.348 68.1846 119.026 68.2207 117.698C68.2207 117.612 68.2207 117.526 68.2207 117.44C68.2207 117.44 68.2207 117.405 68.2207 117.388C68.2074 116.723 68.0383 116.068 67.7258 115.473C67.4134 114.878 66.9654 114.356 66.4146 113.947C65.6705 113.358 64.7855 112.938 64.11 112.284C63.3081 111.503 62.871 110.457 62.2461 109.531C61.2042 108.009 59.6581 106.862 57.8536 106.272C56.5099 105.839 54.8663 105.79 53.8368 106.72C53.3058 107.198 52.9988 107.883 52.392 108.285C51.5359 108.867 50.3727 108.695 49.3252 108.812C47.4251 109.025 45.7563 110.316 44.9183 111.957C44.4043 112.994 44.1567 114.133 44.1958 115.279C44.1844 116.065 44.2828 116.85 44.4884 117.612C44.6907 118.372 44.9905 119.105 45.2108 119.859C45.666 121.428 45.7707 123.08 46.2945 124.632C46.6494 125.781 47.3563 126.802 48.3246 127.565L48.1693 128.205C48.0681 128.225 45.5432 128.742 43.7949 132.376C42.415 135.239 37.748 138.199 35.6962 139.393C35.3135 139.616 34.9812 139.91 34.7188 140.256C34.4565 140.603 34.2693 140.996 34.1683 141.413C33.9712 142.255 33.8839 143.118 33.9082 143.98C33.8721 145.842 34.2694 148.416 35.8516 151.682C39.4204 159.099 42.014 162.351 42.014 162.351C42.014 162.351 42.2127 164.622 42.2235 167.017C42.2235 168.8 42.0863 170.576 41.6889 171.464C41.353 172.214 41.2482 174.131 41.2555 176.316C41.2555 180.511 41.6889 185.987 41.6889 185.987C41.6889 185.987 42.9279 186.211 44.8496 186.479L46.0453 206.505C46.1954 208.93 45.3788 211.319 43.7587 213.195C42.9169 214.179 41.9457 215.056 40.8689 215.804C37.4626 218.12 30.1659 242.53 30.1659 242.53C30.1659 242.53 30.5271 242.551 31.1123 242.595L28.8691 248.556C28.8691 248.556 37.8275 255.095 43.2819 253.309C43.8645 253.128 44.4757 253.045 45.088 253.064C46.1717 253.064 48.4655 252.256 47.1831 251.185C44.8532 249.244 42.061 246.305 40.1935 244.261C40.3696 244.342 40.5387 244.437 40.6992 244.543V244.495L40.775 244.543C40.775 244.543 40.7931 244.302 40.8328 243.914L40.7534 243.889C40.9195 242.282 41.4397 238.242 42.4764 237.746C43.7732 237.127 53.3384 219.056 53.3384 219.056L62.9035 195.575C62.9035 195.575 70.5253 208.088 77.0093 210.249V215.47C77.0093 215.47 80.5781 230.919 81.8749 232.619C83.1717 234.319 81.8749 241.116 81.8749 241.116C82.1313 241.395 82.4252 241.642 82.7491 241.849L81.7124 247.448C81.7124 247.448 89.1716 247.138 101.818 250.848C101.851 250.855 106.716 248.852 102.663 246.374ZM72.8263 165.569L71.2478 165.944L70.9371 166.019C70.9046 165.834 70.8829 165.723 70.8829 165.723C70.5216 165.878 70.1334 165.968 69.7379 165.988C69.1783 164.3 68.8552 162.548 68.777 160.778C68.777 160.778 67.8595 157.209 67.8089 154.325C67.827 153.2 68.004 152.219 68.4519 151.665L68.9793 151.706L69.3405 152.051L69.3658 152.075L69.5536 152.236L69.7487 152.405L69.7812 152.433L69.9943 152.608L70.0304 152.639L70.2472 152.815L70.2688 152.832L70.5109 153.021L70.5651 153.062L70.8215 153.258H70.8432L71.0961 153.448L71.1539 153.489L71.432 153.692L71.4898 153.733L71.7571 153.919L71.804 153.95L72.1075 154.157L72.1797 154.205L72.4976 154.415L72.5265 154.432L72.8371 154.628L72.913 154.676L73.2489 154.879L73.3212 154.921L73.6354 155.103L73.6932 155.138L74.0545 155.337L74.1412 155.385L74.5024 155.585H74.5313L74.8925 155.767L74.9828 155.812L75.3657 155.994L75.4452 156.029L75.8064 156.187L75.875 156.218L76.276 156.383L76.3735 156.421L76.7925 156.58C74.1556 159.26 72.8263 165.569 72.8263 165.569Z" fill="url(#paint1_linear)"/>
<path d="M32.8352 238.914L29.8262 246.908C29.8262 246.908 38.0657 252.927 43.419 251.681C44.2253 251.49 45.0469 251.364 45.8753 251.303C46.9842 251.224 48.8915 250.456 47.7139 249.475C43.9139 246.309 38.8495 240.428 38.8495 240.428L32.8352 238.914Z" fill="#4F4D59"/>
<path d="M82.8573 238.156L81.4341 245.848C81.4341 245.848 88.7163 245.545 101.063 249.165C101.063 249.165 105.813 247.204 101.854 244.791C101.854 244.791 97.2629 245.094 94.4128 240.417C91.5628 235.74 89.8217 236.346 89.8217 236.346L82.8573 238.156Z" fill="#4F4D59"/>
<path d="M45.1816 182.356L46.5759 205.758C46.7253 208.252 45.8569 210.705 44.1521 212.603C43.3815 213.475 42.5034 214.255 41.5369 214.926C38.2136 217.187 31.0903 241.016 31.0903 241.016C31.0903 241.016 39.1637 241.467 41.3779 242.978C41.3779 242.978 41.8512 236.945 43.119 236.343C44.3869 235.74 53.7245 218.103 53.7245 218.103L63.0694 195.165C63.0694 195.165 70.5106 207.383 76.8428 209.492V214.62C76.8428 214.62 80.325 229.701 81.5929 231.359C82.8608 233.018 81.5929 239.653 81.5929 239.653C81.5929 239.653 85.234 244.027 93.6216 239.35C93.6216 239.35 90.9305 236.484 91.093 233.015C91.2556 229.546 87.4519 210.545 87.4519 210.545C87.4519 210.545 87.9251 203.318 84.1286 198.782C80.3322 194.247 73.9964 176.926 73.9964 176.926L69.64 167.995L45.1816 182.356Z" fill="#787C9C"/>
<g opacity="0.1">
<path opacity="0.1" d="M32.5967 241.023C32.5967 241.023 39.72 217.194 43.0432 214.933C44.0649 214.222 44.9884 213.39 45.7921 212.459C47.4183 210.586 48.2357 208.194 48.0787 205.769L46.6843 182.367L70.0229 168.649L69.705 167.999L45.2539 182.356L46.6482 205.758C46.8112 208.185 45.9988 210.579 44.3761 212.455C43.5724 213.387 42.6489 214.218 41.6272 214.93C38.304 217.191 31.1807 241.019 31.1807 241.019C31.1807 241.019 39.254 241.47 41.4683 242.981C41.4683 242.981 41.4863 242.747 41.5261 242.365C38.4051 241.35 32.5967 241.023 32.5967 241.023Z" fill="black"/>
<path opacity="0.1" d="M83.0957 239.667C83.0957 239.667 84.3636 233.032 83.0957 231.373C81.8278 229.714 78.3312 214.63 78.3312 214.63V209.503C72.0134 207.393 64.5722 195.166 64.5722 195.166L64.0195 196.542C66.1652 199.784 71.8906 207.834 76.9188 209.51V214.637C76.9188 214.637 80.401 229.718 81.6689 231.377C82.9368 233.035 81.6689 239.671 81.6689 239.671C81.6689 239.671 83.4352 241.787 87.3364 241.501C84.4286 241.281 83.0957 239.667 83.0957 239.667Z" fill="black"/>
</g>
<path d="M99.6431 156.115L96.533 156.311L94.8931 156.415V152.629L97.0604 152.257L98.3933 152.027C98.3933 152.027 102.508 140.415 106.467 142.525C110.426 144.634 99.6431 156.115 99.6431 156.115Z" fill="#714B4F"/>
<path d="M49.7726 125.049C49.7726 125.049 47.7136 132.59 47.0815 137.267C46.4494 141.943 61.8013 138.172 61.8013 138.172C61.8013 138.172 55.9459 131.385 59.2728 127.765L49.7726 125.049Z" fill="#714B4F"/>
<path d="M66.4109 156.418L66.7287 159.284L61.8233 158.982L56.8963 154.9L51.9909 141.788L48.8266 137.115L46.4497 134.251L47.3997 130.782C47.3997 130.782 47.8332 131.126 48.5665 131.677C50.9758 133.436 56.6326 137.087 60.765 136.079C60.9562 136.033 61.1443 135.977 61.3285 135.91L67.4945 146.011L66.4109 156.418Z" fill="#E6E6F0"/>
<path opacity="0.1" d="M48.6638 129.874C48.6638 129.874 46.1353 130.325 44.3906 133.945C43.0504 136.729 38.5315 139.6 36.5123 140.78C36.1273 141.004 35.7935 141.3 35.5304 141.649C35.2674 141.999 35.0804 142.395 34.9807 142.814C34.5725 144.535 34.4172 147.735 36.6351 152.347C40.1173 159.574 42.6495 162.754 42.6495 162.754C42.6495 162.754 43.2816 169.981 42.3316 172.104C41.3816 174.228 42.3316 185.829 42.3316 185.829C42.3316 185.829 58.9478 188.843 64.4926 185.829C70.0374 182.814 69.2427 171.199 69.2427 171.199C69.2427 171.199 74.466 181.744 76.366 182.057L75.257 176.175C75.257 176.175 69.0837 169.84 68.755 161.697C68.755 161.697 66.855 154.308 68.4371 152.347C68.4371 152.347 95.1893 154.46 96.7714 152.65C96.7714 152.65 79.2016 151.896 76.5105 147.832C76.5105 147.832 68.755 141.95 68.4371 138.03C68.3908 137.295 68.1486 136.583 67.7333 135.962C67.3181 135.34 66.7436 134.83 66.0639 134.479C64.9871 133.895 63.7516 133.633 62.5167 133.725L58.9406 133.959C58.9406 133.959 65.1139 144.366 64.796 145.722C64.4782 147.078 65.1139 158.087 65.1139 158.087C65.1139 158.087 58.0051 143.447 54.8516 141.788C51.6981 140.13 48.0461 133.319 48.0461 133.319L48.6783 129.877" fill="black"/>
<path opacity="0.1" d="M66.4109 156.418L66.7287 159.284L61.8233 158.982L56.8963 154.9L51.9909 141.788L48.8266 137.115L46.4497 134.251L47.3997 130.782C47.3997 130.782 47.8332 131.126 48.5665 131.677L48.3497 132.875C48.3497 132.875 51.9909 139.685 55.1552 141.344C58.3195 143.003 65.4428 157.633 65.4428 157.633C65.4428 157.633 64.8107 146.62 65.1249 145.267C65.3417 144.345 62.5675 139.262 60.765 136.086C60.9562 136.04 61.1443 135.984 61.3285 135.917L67.4945 146.011L66.4109 156.418Z" fill="black"/>
<path opacity="0.1" d="M96.5257 156.315L94.8857 156.418V152.632L97.0531 152.261C96.2909 153.221 96.3162 154.9 96.5257 156.315Z" fill="black"/>
<path d="M48.6638 129.434C48.6638 129.434 46.1353 129.884 44.3906 133.505C43.0504 136.289 38.5315 139.159 36.5123 140.34C36.1273 140.564 35.7935 140.859 35.5304 141.209C35.2674 141.558 35.0804 141.954 34.9807 142.373C34.5725 144.094 34.4172 147.295 36.6351 151.906C40.1173 159.133 42.6495 162.313 42.6495 162.313C42.6495 162.313 43.2816 169.54 42.3316 171.664C41.3816 173.787 42.3316 185.388 42.3316 185.388C42.3316 185.388 58.9478 188.403 64.4926 185.388C70.0374 182.374 69.2427 170.731 69.2427 170.731C69.2427 170.731 74.466 181.29 76.366 181.589L75.257 175.708C75.257 175.708 69.0837 169.372 68.755 161.229C68.755 161.229 66.855 153.84 68.4371 151.879C68.4371 151.879 74.6105 158.215 81.5748 158.073C88.5392 157.932 96.7714 158.827 96.7714 158.827C96.7714 158.827 95.1893 154.009 96.7714 152.192C96.7714 152.192 79.2016 151.438 76.5105 147.374C76.5105 147.374 68.755 141.492 68.4371 137.573C68.3908 136.837 68.1486 136.125 67.7333 135.504C67.3181 134.883 66.7436 134.372 66.0639 134.021C64.9871 133.438 63.7516 133.175 62.5167 133.267L58.9406 133.501C58.9406 133.501 65.1284 143.888 64.8105 145.264C64.4926 146.641 65.1284 157.63 65.1284 157.63C65.1284 157.63 58.0051 142.996 54.8516 141.338C51.6981 139.679 48.0317 132.875 48.0317 132.875L48.6638 129.434Z" fill="#787C9C"/>
<path opacity="0.1" d="M45.182 145.264C45.182 145.264 48.9821 157.481 51.1964 158.989C53.4107 160.496 66.8662 168.188 70.8252 166.378C70.8252 166.378 71.7752 170.903 70.352 171.956C70.352 171.956 55.5924 171.406 55.4732 171.354C55.4732 171.354 45.8178 170.146 44.2356 165.624C42.6534 161.102 40.7534 153.407 40.7534 153.407L45.182 145.264Z" fill="black"/>
<path d="M65.4462 159.058C65.7515 159.058 65.9989 158.72 65.9989 158.304C65.9989 157.888 65.7515 157.55 65.4462 157.55C65.141 157.55 64.8936 157.888 64.8936 158.304C64.8936 158.72 65.141 159.058 65.4462 159.058Z" fill="#BA7855"/>
<path d="M67.0287 164.336C67.334 164.336 67.5814 163.999 67.5814 163.583C67.5814 163.167 67.334 162.829 67.0287 162.829C66.7235 162.829 66.4761 163.167 66.4761 163.583C66.4761 163.999 66.7235 164.336 67.0287 164.336Z" fill="#BA7855"/>
<g opacity="0.1">
<path opacity="0.1" d="M43.4404 185.223C43.4404 185.223 42.4904 173.611 43.4404 171.498C44.3904 169.385 43.7582 162.148 43.7582 162.148C43.7582 162.148 41.2297 158.982 37.7439 151.741C35.526 147.129 35.6849 143.929 36.0895 142.208C36.1896 141.788 36.3771 141.392 36.6408 141.043C36.9045 140.694 37.239 140.398 37.6247 140.174C39.6439 138.994 44.1628 136.123 45.4993 133.339C46.4819 131.299 47.7136 130.263 48.6059 129.75L48.6673 129.406C48.6673 129.406 46.1387 129.857 44.394 133.477C43.0539 136.261 38.535 139.131 36.5193 140.312C36.1337 140.536 35.7991 140.831 35.5355 141.181C35.2718 141.53 35.0843 141.926 34.9841 142.346C34.576 144.066 34.4206 147.267 36.6385 151.879C40.1207 159.106 42.6529 162.285 42.6529 162.285C42.6529 162.285 43.285 169.513 42.335 171.636C41.385 173.759 42.335 185.361 42.335 185.361C42.335 185.361 54.2084 187.515 61.2306 186.362C54.1289 187.164 43.4404 185.223 43.4404 185.223Z" fill="black"/>
<path opacity="0.1" d="M64.8102 145.264C64.5935 146.193 64.8102 151.658 64.9872 155.003C65.753 156.494 66.2334 157.478 66.2334 157.478C66.2334 157.478 65.6013 146.465 65.9155 145.113C66.2154 143.822 60.6561 134.358 60.1035 133.412L58.9512 133.487C58.9512 133.487 65.1281 143.887 64.8102 145.264Z" fill="black"/>
<path opacity="0.1" d="M82.6983 157.925C75.7339 158.076 69.5606 151.73 69.5606 151.73C69.3739 151.977 69.2379 152.255 69.1597 152.55C70.9658 154.17 76.0229 158.187 81.5893 158.056C88.5537 157.904 96.786 158.81 96.786 158.81C96.786 158.81 96.7535 158.71 96.7029 158.538C92.0502 158.086 87.3748 157.882 82.6983 157.925Z" fill="black"/>
<path opacity="0.1" d="M70.3516 170.593C70.3516 170.593 70.4166 171.536 70.3805 172.951C72.0276 176.048 75.0258 181.389 76.3659 181.602L76.1311 180.364C73.8193 177.614 70.3516 170.593 70.3516 170.593Z" fill="black"/>
</g>
<path d="M74.7839 169.086L71.4209 169.774L68.7695 170.308L70.1927 166.522L71.1825 166.285L72.7249 165.92C72.7249 165.92 74.9428 155.361 79.375 156.118C83.8072 156.876 74.7839 169.086 74.7839 169.086Z" fill="#714B4F"/>
<path opacity="0.1" d="M71.4209 169.76L68.7695 170.294L70.1928 166.508L71.1825 166.271C71.4039 167.421 71.4839 168.592 71.4209 169.76Z" fill="black"/>
<path d="M45.182 144.954C45.182 144.954 48.9821 157.171 51.1964 158.679C53.4107 160.186 66.8662 167.878 70.8252 166.067C70.8252 166.067 71.7752 170.593 70.352 171.646C70.352 171.646 55.5924 171.095 55.4732 171.044C55.4732 171.044 45.8178 169.836 44.2356 165.314C42.6534 160.792 40.7534 153.097 40.7534 153.097L45.182 144.954Z" fill="#787C9C"/>
<path opacity="0.1" d="M49.932 125.352C49.932 125.352 49.6105 126.532 49.1807 128.249C50.0589 129.829 51.4588 131.09 53.1641 131.837C54.8695 132.583 56.7854 132.774 58.6158 132.379C58.2365 130.83 58.3196 129.282 59.4322 128.053L49.932 125.352Z" fill="black"/>
<path d="M56.5817 132.286C61.3018 132.286 65.1282 128.641 65.1282 124.144C65.1282 119.647 61.3018 116.001 56.5817 116.001C51.8616 116.001 48.0352 119.647 48.0352 124.144C48.0352 128.641 51.8616 132.286 56.5817 132.286Z" fill="#714B4F"/>
<path opacity="0.1" d="M64.0014 121.904C64.622 122.068 65.2719 122.105 65.9087 122.014C67.2416 121.752 68.1916 120.462 68.2241 119.164C68.2108 118.514 68.0457 117.875 67.7408 117.294C67.4359 116.712 66.9988 116.202 66.4614 115.802C65.7389 115.227 64.872 114.818 64.2109 114.178C63.4271 113.417 63.0008 112.391 62.4048 111.497C61.3837 110.009 59.8692 108.889 58.1027 108.317C56.7914 107.893 55.1876 107.845 54.1798 108.754C53.6632 109.218 53.3598 109.889 52.7818 110.282C51.9438 110.85 50.8096 110.681 49.7873 110.795C48.8607 110.93 47.9835 111.281 47.2332 111.817C46.4828 112.352 45.8825 113.055 45.4852 113.864C44.7089 115.503 44.5606 117.349 45.0661 119.082C45.2648 119.821 45.5538 120.541 45.7669 121.277C46.2112 122.812 46.316 124.423 46.8289 125.937C47.3418 127.451 48.4002 128.931 50.0004 129.378C49.8738 127.681 50.2255 125.982 51.0191 124.457C51.1505 124.125 51.4084 123.852 51.7415 123.693C52.0271 123.623 52.3265 123.623 52.6121 123.693C54.6162 123.976 56.6611 123.582 58.3916 122.578C58.9985 122.234 59.9449 121.026 60.5951 120.906C61.4259 120.764 63.1345 121.718 64.0014 121.904Z" fill="black"/>
<path d="M64.0014 121.601C64.6219 121.765 65.2718 121.803 65.9086 121.711C67.2416 121.449 68.1916 120.159 68.2241 118.861C68.2108 118.211 68.0456 117.572 67.7407 116.991C67.4358 116.409 66.9988 115.9 66.4613 115.499C65.7389 114.924 64.8719 114.515 64.2109 113.875C63.427 113.114 63.0008 112.089 62.4048 111.194C61.3837 109.706 59.8692 108.587 58.1026 108.014C56.7914 107.591 55.1876 107.542 54.1798 108.451C53.6632 108.916 53.3598 109.587 52.7818 109.979C51.9438 110.547 50.8095 110.378 49.7873 110.492C48.8607 110.628 47.9835 110.979 47.2331 111.514C46.4828 112.049 45.8824 112.753 45.4851 113.562C44.7123 115.196 44.5641 117.037 45.0661 118.765C45.2648 119.505 45.5538 120.224 45.7669 120.961C46.2112 122.496 46.3159 124.106 46.8289 125.62C47.3418 127.135 48.4002 128.615 50.0004 129.062C49.8738 127.364 50.2255 125.665 51.019 124.141C51.1504 123.808 51.4084 123.536 51.7415 123.377C52.0271 123.307 52.3265 123.307 52.612 123.377C54.6161 123.66 56.661 123.265 58.3916 122.262C58.9985 121.917 59.9449 120.709 60.5951 120.589C61.4259 120.462 63.1345 121.418 64.0014 121.601Z" fill="#503F43"/>
<path d="M268.417 37.1128H81.7554V249.795H268.417V37.1128Z" fill="#FAFBFC"/>
<path d="M268.417 37.1128H81.7554V44.3227H268.417V37.1128Z" fill="#7983A6"/>
<path d="M106.979 123.779H243.193" stroke="#7983A6" stroke-miterlimit="10"/>
<g opacity="0.5">
<path opacity="0.5" d="M106.979 109.659H109.147" stroke="#7983A6" stroke-miterlimit="10"/>
<path opacity="0.5" d="M113.402 109.659H238.898" stroke="#7983A6" stroke-miterlimit="10" stroke-dasharray="11.78 11.78"/>
<path opacity="0.5" d="M241.026 109.659H243.193" stroke="#7983A6" stroke-miterlimit="10"/>
</g>
<g opacity="0.5">
<path opacity="0.5" d="M106.979 95.542H109.147" stroke="#7983A6" stroke-miterlimit="10"/>
<path opacity="0.5" d="M113.402 95.542H238.898" stroke="#7983A6" stroke-miterlimit="10" stroke-dasharray="11.78 11.78"/>
<path opacity="0.5" d="M241.026 95.542H243.193" stroke="#7983A6" stroke-miterlimit="10"/>
</g>
<g opacity="0.5">
<path opacity="0.5" d="M106.979 81.4219H109.147" stroke="#7983A6" stroke-miterlimit="10"/>
<path opacity="0.5" d="M113.402 81.4219H238.898" stroke="#7983A6" stroke-miterlimit="10" stroke-dasharray="11.78 11.78"/>
<path opacity="0.5" d="M241.026 81.4219H243.193" stroke="#7983A6" stroke-miterlimit="10"/>
</g>
<g opacity="0.5">
<path opacity="0.5" d="M106.979 67.3047H109.147" stroke="#7983A6" stroke-miterlimit="10"/>
<path opacity="0.5" d="M113.402 67.3047H238.898" stroke="#7983A6" stroke-miterlimit="10" stroke-dasharray="11.78 11.78"/>
<path opacity="0.5" d="M241.026 67.3047H243.193" stroke="#7983A6" stroke-miterlimit="10"/>
</g>
<g opacity="0.3">
<path opacity="0.3" d="M123.534 95.542H113.76V123.779H123.534V95.542Z" fill="#EA5042"/>
</g>
<path d="M150.807 81.27H141.032V123.927H150.807V81.27Z" fill="#EA5042"/>
<g opacity="0.3">
<path opacity="0.3" d="M178.083 109.507H168.308V124.075H178.083V109.507Z" fill="#EA5042"/>
</g>
<path d="M205.355 66.854H195.581V123.931H205.355V66.854Z" fill="#EA5042"/>
<g opacity="0.3">
<path opacity="0.3" d="M232.627 80.6714H222.853V123.779H232.627V80.6714Z" fill="#EA5042"/>
</g>
<path d="M118.647 132.637C120.04 132.637 121.169 131.562 121.169 130.235C121.169 128.908 120.04 127.833 118.647 127.833C117.255 127.833 116.126 128.908 116.126 130.235C116.126 131.562 117.255 132.637 118.647 132.637Z" fill="#EA5042"/>
<path d="M146.078 132.637C147.471 132.637 148.6 131.562 148.6 130.235C148.6 128.908 147.471 127.833 146.078 127.833C144.686 127.833 143.557 128.908 143.557 130.235C143.557 131.562 144.686 132.637 146.078 132.637Z" fill="#EA5042"/>
<path d="M173.51 132.637C174.902 132.637 176.031 131.562 176.031 130.235C176.031 128.908 174.902 127.833 173.51 127.833C172.117 127.833 170.988 128.908 170.988 130.235C170.988 131.562 172.117 132.637 173.51 132.637Z" fill="#EA5042"/>
<path d="M200.941 132.637C202.334 132.637 203.463 131.562 203.463 130.235C203.463 128.908 202.334 127.833 200.941 127.833C199.549 127.833 198.42 128.908 198.42 130.235C198.42 131.562 199.549 132.637 200.941 132.637Z" fill="#EA5042"/>
<path d="M228.372 132.637C229.764 132.637 230.893 131.562 230.893 130.235C230.893 128.908 229.764 127.833 228.372 127.833C226.979 127.833 225.851 128.908 225.851 130.235C225.851 131.562 226.979 132.637 228.372 132.637Z" fill="#EA5042"/>
<path d="M106.979 214.5H243.193" stroke="#7983A6" stroke-miterlimit="10"/>
<g opacity="0.5">
<path opacity="0.5" d="M106.979 200.379H109.147" stroke="#7983A6" stroke-miterlimit="10"/>
<path opacity="0.5" d="M113.402 200.379H238.898" stroke="#7983A6" stroke-miterlimit="10" stroke-dasharray="11.78 11.78"/>
<path opacity="0.5" d="M241.026 200.379H243.193" stroke="#7983A6" stroke-miterlimit="10"/>
</g>
<g opacity="0.5">
<path opacity="0.5" d="M106.979 186.262H109.147" stroke="#7983A6" stroke-miterlimit="10"/>
<path opacity="0.5" d="M113.402 186.262H238.898" stroke="#7983A6" stroke-miterlimit="10" stroke-dasharray="11.78 11.78"/>
<path opacity="0.5" d="M241.026 186.262H243.193" stroke="#7983A6" stroke-miterlimit="10"/>
</g>
<g opacity="0.5">
<path opacity="0.5" d="M106.979 172.142H109.147" stroke="#7983A6" stroke-miterlimit="10"/>
<path opacity="0.5" d="M113.402 172.142H238.898" stroke="#7983A6" stroke-miterlimit="10" stroke-dasharray="11.78 11.78"/>
<path opacity="0.5" d="M241.026 172.142H243.193" stroke="#7983A6" stroke-miterlimit="10"/>
</g>
<g opacity="0.5">
<path opacity="0.5" d="M106.979 158.025H109.147" stroke="#7983A6" stroke-miterlimit="10"/>
<path opacity="0.5" d="M113.402 158.025H238.898" stroke="#7983A6" stroke-miterlimit="10" stroke-dasharray="11.78 11.78"/>
<path opacity="0.5" d="M241.026 158.025H243.193" stroke="#7983A6" stroke-miterlimit="10"/>
</g>
<path d="M123.534 186.262H113.76V214.499H123.534V186.262Z" fill="#EA5042"/>
<path d="M150.807 186.111H141.032V214.647H150.807V186.111Z" fill="#EA5042"/>
<path d="M178.083 200.231H168.308V214.799H178.083V200.231Z" fill="#EA5042"/>
<path d="M205.355 157.574H195.581V214.651H205.355V157.574Z" fill="#EA5042"/>
<path d="M269.833 123.899H260.059V167.007H269.833V123.899Z" fill="#EA5042"/>
<g opacity="0.7">
<path opacity="0.7" d="M118.647 223.358C120.04 223.358 121.169 222.283 121.169 220.956C121.169 219.629 120.04 218.554 118.647 218.554C117.255 218.554 116.126 219.629 116.126 220.956C116.126 222.283 117.255 223.358 118.647 223.358Z" fill="#EA5042"/>
</g>
<g opacity="0.7">
<path opacity="0.7" d="M146.078 223.358C147.471 223.358 148.6 222.283 148.6 220.956C148.6 219.629 147.471 218.554 146.078 218.554C144.686 218.554 143.557 219.629 143.557 220.956C143.557 222.283 144.686 223.358 146.078 223.358Z" fill="#EA5042"/>
</g>
<g opacity="0.7">
<path opacity="0.7" d="M173.51 223.358C174.902 223.358 176.031 222.283 176.031 220.956C176.031 219.629 174.902 218.554 173.51 218.554C172.117 218.554 170.988 219.629 170.988 220.956C170.988 222.283 172.117 223.358 173.51 223.358Z" fill="#EA5042"/>
</g>
<g opacity="0.7">
<path opacity="0.7" d="M200.941 223.358C202.334 223.358 203.463 222.283 203.463 220.956C203.463 219.629 202.334 218.554 200.941 218.554C199.549 218.554 198.42 219.629 198.42 220.956C198.42 222.283 199.549 223.358 200.941 223.358Z" fill="#EA5042"/>
</g>
<g opacity="0.7">
<path opacity="0.7" d="M228.372 223.358C229.764 223.358 230.893 222.283 230.893 220.956C230.893 219.629 229.764 218.554 228.372 218.554C226.979 218.554 225.851 219.629 225.851 220.956C225.851 222.283 226.979 223.358 228.372 223.358Z" fill="#EA5042"/>
</g>
<path d="M67.9278 249.017C68.5898 248.503 69.0723 247.809 69.3113 247.028C69.4919 246.236 69.1379 245.29 68.3432 245.001C67.4546 244.677 66.5046 245.263 65.7857 245.858C65.0669 246.453 64.2397 247.128 63.2969 247C63.7815 246.582 64.144 246.051 64.3491 245.459C64.5542 244.868 64.5949 244.236 64.4673 243.624C64.4265 243.371 64.3141 243.133 64.1422 242.936C63.6473 242.434 62.7551 242.65 62.1627 243.046C60.2843 244.306 59.7605 246.735 59.7497 248.924C59.5619 248.136 59.7208 247.314 59.7136 246.515C59.7063 245.717 59.4752 244.794 58.76 244.375C58.3164 244.148 57.8184 244.035 57.3151 244.048C56.4698 244.017 55.5306 244.099 54.9527 244.688C54.2302 245.417 54.4217 246.646 55.0466 247.441C55.6715 248.236 56.6179 248.749 57.4921 249.306C58.1927 249.703 58.7903 250.245 59.2404 250.893C59.2933 250.983 59.3369 251.077 59.3704 251.175H64.6623C65.848 250.599 66.9465 249.874 67.9278 249.017Z" fill="#EA5042"/>
<path d="M325.118 244.887C325.78 244.373 326.263 243.679 326.502 242.898C326.682 242.107 326.328 241.16 325.534 240.871C324.645 240.548 323.695 241.133 322.976 241.728C322.257 242.323 321.43 242.998 320.487 242.871C320.972 242.452 321.334 241.921 321.54 241.329C321.745 240.738 321.785 240.106 321.658 239.495C321.617 239.241 321.505 239.003 321.333 238.806C320.838 238.304 319.946 238.521 319.353 238.916C317.475 240.176 316.951 242.606 316.94 244.794C316.752 244.006 316.911 243.184 316.904 242.385C316.897 241.587 316.666 240.665 315.95 240.245C315.507 240.018 315.009 239.905 314.505 239.918C313.66 239.887 312.721 239.969 312.143 240.558C311.421 241.288 311.612 242.516 312.237 243.311C312.862 244.106 313.808 244.619 314.682 245.176C315.383 245.573 315.981 246.115 316.431 246.763C316.484 246.853 316.527 246.947 316.561 247.045H321.853C323.038 246.469 324.137 245.744 325.118 244.887Z" fill="#EA5042"/>
<path d="M287.696 161.597L285.055 161.305L264.827 159.064C252.549 155.368 260.315 149.738 260.315 149.738L268.49 157.137C270.848 157.588 280.096 156.538 284.239 156.032C285.482 155.877 286.265 155.774 286.265 155.774L287.696 161.597Z" fill="#FDC2CC"/>
<path d="M307.516 134.94C307.516 134.94 302.203 130.851 294.234 144.091C286.265 157.33 284.427 155.186 284.427 155.186C284.427 155.186 286.063 161.036 285.243 162.196C285.243 162.196 290.759 161.807 292.804 162.196C294.848 162.585 307.516 147.398 307.516 147.398C307.516 147.398 314.058 138.822 307.516 134.94Z" fill="#F68080"/>
</g>
<defs>
<linearGradient id="paint0_linear" x1="282.92" y1="251.918" x2="282.92" y2="107.573" gradientUnits="userSpaceOnUse">
<stop stop-color="#808080" stop-opacity="0.25"/>
<stop offset="0.54" stop-color="#808080" stop-opacity="0.12"/>
<stop offset="1" stop-color="#808080" stop-opacity="0.1"/>
</linearGradient>
<linearGradient id="paint1_linear" x1="24162.6" y1="118928" x2="24162.6" y2="55595.1" gradientUnits="userSpaceOnUse">
<stop stop-color="#808080" stop-opacity="0.25"/>
<stop offset="0.54" stop-color="#808080" stop-opacity="0.12"/>
<stop offset="1" stop-color="#808080" stop-opacity="0.1"/>
</linearGradient>
<clipPath id="clip0">
<rect width="351" height="263" fill="white"/>
</clipPath>
</defs>
</svg>
