<svg xmlns="http://www.w3.org/2000/svg" width="319.427" height="199.439" viewBox="0 0 319.427 199.439"><defs><style>.a{fill:#fff;}.b{fill:#184655;}.c{opacity:0.35;}.d{fill:#96a7ce;}.e{fill:#c6d0e8;}.f{fill:#354b7d;}.g{fill:#b9c3da;}.h{fill:#172441;}.i{fill:#f48c7f;}.j{fill:#f7a491;}.k{fill:#b75742;}.l{fill:#120f24;}.m{fill:#222;}.n{fill:#2e2f59;}.o{fill:#464775;}.p{fill:#f47458;}.q{fill:#e0e4f0;}.r{fill:#ec4f49;}.s{fill:#f4fafd;}.t{fill:#b3a15e;}</style></defs><g transform="translate(-579 -302.995)"><rect class="a" width="185.064" height="128.57" transform="translate(660.551 352.003)"/><path class="b" d="M527.229,1741.33a.768.768,0,1,0,0,1.534h256.6a.8.8,0,0,0,.842-.756v-.015a.806.806,0,0,0-.842-.763Z" transform="translate(91.487 -1240.429)"/><g class="c" transform="translate(3780.155 2632)"><ellipse class="d" cx="5.437" cy="5.437" rx="5.437" ry="5.437" transform="translate(-3171.634 -2202.14)"/><path class="d" d="M1706.644,476.78c-17.34,12.037-39.077,10.847-49.055-2.519l63.847-44.322C1730.469,443.962,1723.984,464.744,1706.644,476.78Z" transform="translate(-4857.743 -2651.385)"/><ellipse class="d" cx="3.511" cy="3.511" rx="3.511" ry="3.511" transform="translate(-3155.608 -2177.486)"/><path class="d" d="M1720.007,734.1l1.369-.283-8.055-38.985H1708.5v39.126h1.4V696.227h2.286Z" transform="translate(-4862.46 -2870.26)"/><path class="d" d="M1857.163,371.91l-1.221,21.925-2.882-21.925Z" transform="translate(-5023.36 -2603.436)"/><path class="d" d="M1904.933,416.994l-20.573-20.233,3.537-2.752Z" transform="translate(-5076.566 -2621.697)"/><path class="d" d="M1956.906,512.186l-20.366-6.716-.109,4.2Z" transform="translate(-5137.585 -2713.794)"/></g><circle class="e" cx="37.486" cy="37.486" r="37.486" transform="translate(823.456 302.995)"/><path class="a" d="M2314.287,651.923a64.1,64.1,0,0,1-1.018,11.451c-1.737,9.815-7.569,24.388-17.372,25.932-12.36,1.768-20.8-18.6-20.808-37.383.01-15.515,6.205-35.535,17.976-37.383C2304.634,612.887,2314.278,631.815,2314.287,651.923Zm-1.954,0c-.012-33.206-16.437-45.586-27.431-32.146-6.561,7.954-8.672,21.8-8.674,32.146,0,17.684,6.283,37.333,18.258,37.486a10.7,10.7,0,0,0,1.414-.108c9.855-1.581,14.317-16.011,15.7-26.193a83.927,83.927,0,0,0,.73-11.185Z" transform="translate(-1433.543 -311.441)"/><path class="a" d="M2286.365,671.968q-.443-.431-.9-.848c-16.044,5.571-35.589,5.559-51.419.745-.174.174-.348.333-.507.5l.815.3a69.791,69.791,0,0,0,13.7,3.448,78.285,78.285,0,0,0,30.817-1.746c1.956-.521,1.139-.287,3.957-1.155-.012,0,.247-.083,2.338-.808C2285.154,672.406,2285.6,672.256,2286.365,671.968Z" transform="translate(-1399.211 -358.277)"/><path class="a" d="M2254.029,963.48a96.071,96.071,0,0,0-18.839,3.278q.36.347.728.695a113.286,113.286,0,0,1,39.392-2.467,100.584,100.584,0,0,1,12.217,2.085c.314-.3.625-.613.929-.928A112.328,112.328,0,0,0,2254.029,963.48Z" transform="translate(-1400.574 -599.585)"/><path class="a" d="M2170.968,823.64c-.012.379-.017.761-.017,1.143h74.972c0-.382,0-.764-.017-1.143Z" transform="translate(-1347.494 -484.302)"/><rect class="f" width="207.447" height="158.325" rx="10" transform="translate(649.373 342.104)"/><rect class="g" width="199.557" height="149.838" rx="10" transform="translate(653.917 345.821)"/><rect class="a" width="190" height="133" rx="5" transform="translate(658 352)"/><path class="h" d="M1168.83,1696.07v5.373c0,2.3,4.942,4.169,11.04,4.169h212.007c6.1,0,11.04-1.864,11.04-4.169v-5.373Z" transform="translate(-532.706 -1206.178)"/><path class="i" d="M1879.305,1213.741a4.4,4.4,0,0,1,2.133-.273,32.5,32.5,0,0,0,2.515-3.054s6.66-8.7,7-9.181l2.1-11.255,6.309-.049s-2.635,12.16-2.892,12.756-10.812,11.225-11.707,12.193c0,0-.578,1.563-.976,2.541a7.779,7.779,0,0,1-1.411,1.935,8.442,8.442,0,0,1-1.621,1.631c-.869.679-.413-.377-.413-.377s1.355-1.563,1.2-1.649c-.122-.073-.806.825-1.765,1.586l-.717.563c-.592.457-1.1.214-.566-.368a6.8,6.8,0,0,1,.777-.742,5.712,5.712,0,0,0,.679-.74,7.22,7.22,0,0,0,.695-.768c-.031-.009-.028-.16-.3.04a16.447,16.447,0,0,1-1.39,1.216c-.288.174-.869.587-.869.587a6.511,6.511,0,0,1-1.061.4c-.29-.269.287-.773.717-.962a4.581,4.581,0,0,1,.815-.676s1.028-1.124.848-1.28a16.353,16.353,0,0,0-1.623,1.023c-.763.448-1.622.773-1.753.634-.222-.236.559-.823.559-.823s.573-.38.752-.521c.21-.174.792-.712.792-.712s1.926-2,1.737-2.137a1.585,1.585,0,0,0-.948-.238c-.168.08-.38.389-.551.471a.538.538,0,0,1-.617-.16c-.141-.2.488-.9.488-.9A2.794,2.794,0,0,1,1879.305,1213.741Z" transform="translate(-1042.279 -786.962)"/><path class="j" d="M1928.023,1654.13s-.057,3.882-.055,3.891c.082.493.695,1.711.695,2.159,0,1.683-7.644-1.43-5.936-2.175.155-.068.968-.578,1.018-1.152.08-.882.278-2.67.278-2.67Z" transform="translate(-1080.691 -1170.523)"/><path class="k" d="M1893.717,1676.017a26.055,26.055,0,0,0,2.717.643c.921.122,2.133-.955,2.779-.662.716.321.643,3.5.643,3.5s-9.184.13-12.3-.047C1886.437,1679.385,1890.041,1677.216,1893.717,1676.017Z" transform="translate(-1051.665 -1188.55)"/><path class="j" d="M2026,1654.13s.226,3.882.226,3.891a21.9,21.9,0,0,1,.408,2.159c0,1.683-7.643-1.43-5.937-2.175.156-.068,1.216-.961,1.261-1.534.078-.882.036-2.288.036-2.288Z" transform="translate(-1161.644 -1170.523)"/><path class="k" d="M1989.843,1676.017a26.063,26.063,0,0,0,2.717.643c.921.122,2.133-.955,2.779-.662.716.321.695,3.45.695,3.45s-10.26.111-12.761,0C1982.155,1679.4,1986.169,1677.216,1989.843,1676.017Z" transform="translate(-1130.767 -1188.55)"/><path class="l" d="M1934.867,1331.44l-3.233,1.365-6.8,31.818.276,23.851,5.455.125s2.536-20.865,2.536-22.482,11.752-28.295,11.752-28.295Z" transform="translate(-1082.634 -903.889)"/><path class="m" d="M1997,1336.45s2.383,24.513,2.383,28.646,1.932,27.259,1.932,27.259l5.467-.031s.4-7.049.981-17.42c.092-1.624-.118-4.9,0-6.582.851-12.094,2.533-23.479,1.737-27.992-.13-.726-.373-2.625-.846-3.1C2005.066,1333.6,1997,1336.45,1997,1336.45Z" transform="translate(-1142.267 -907.148)"/><path class="n" d="M1958.59,1148.4l6.617-.434s.327-5.79.327-8.552c0-3.351,1.042-8.293.636-8.2a8.054,8.054,0,0,0-4.039,2.543C1958.955,1138.088,1958.59,1148.4,1958.59,1148.4Z" transform="translate(-1110.529 -738.444)"/><path class="o" d="M1973.613,1129.63s3.773.521,4.765,1.228a13.148,13.148,0,0,1,2.361,2.606s-4.633,21.44-4.642,25.048c0,2.792,1,9.645,1,9.645s-14,.869-19.3-1.185c0,0,1.675-8.151,1.675-10.291s2.008-21.6,2.458-22.965c.413-1.232,1.169-3.448,3.728-4S1973.613,1129.63,1973.613,1129.63Z" transform="translate(-1109.876 -736.989)"/><path class="j" d="M2016.788,1095.563l.935,5.986s-3.412,7.122-5.448,6.511c-1.708-.521-.656-6.825-.656-6.825s.931-3.387.651-5.083S2016.788,1095.563,2016.788,1095.563Z" transform="translate(-1154.081 -708.694)"/><path class="p" d="M2016.3,1096.151c-.28-1.7,4.517-.589,4.517-.589l.076.5a2.7,2.7,0,0,1-.521.834,6.393,6.393,0,0,1-4.2,1.847A9.087,9.087,0,0,0,2016.3,1096.151Z" transform="translate(-1158.115 -708.694)"/><path class="j" d="M2008.475,1039.62c.135-.049,1.087,6.818-.719,8.707s-5.321,2.509-6.584,1.02c-1.39-1.645-1.324-9.033,1.482-10.968S2008.475,1039.62,2008.475,1039.62Z" transform="translate(-1144.981 -661.22)"/><path class="b" d="M2008.469,1020a7.846,7.846,0,0,1,4.091,2.269c.985.115,2.324.643,3.707,2.87a5.47,5.47,0,0,1-1.536,7.258,4.289,4.289,0,0,0-1.953,3.2l-.311-.881a4.864,4.864,0,0,1-.248-2.095,4.021,4.021,0,0,1,.321-1.26c.476-.994-1.023-1.654-1.443-2.481-.323-.636-.347-2.085-.848-3.144l-.61-.8a3.94,3.94,0,0,0-2.78-.763C2005.484,1024.465,2005.686,1019.44,2008.469,1020Z" transform="translate(-1149.728 -646.512)"/><path class="j" d="M2035.728,1071.212c-.014.837.379,1.523.869,1.53s.912-.663.926-1.5-.377-1.523-.869-1.532S2035.744,1070.373,2035.728,1071.212Z" transform="translate(-1174.267 -687.625)"/><path class="j" d="M1968.45,1146.37c-1.27-.035-2.392,8.165-1.588,8.972s.959,10.906.959,10.906l-11.976-.292h0c-.233-.153-2.743-1.8-3.1-2.163a3,3,0,0,0-2.689.332c-.485.521,1.075.094,1.506.377s-.323.994-.323.994-3.035.431-3.625-.184-2.173-1.656-2.389-1.042c-.111.318.705,1.279,1.164,1.682-.573-.419-1.259-.869-1.494-.789-.431.142-.252.677-.019.836s2.642,1.959,3.019,2.085,5.972.259,6.94.469c0,0,15.792,3.521,16.691,3.3.787-.193,1.576-5.142,1.576-8.934S1972.418,1146.479,1968.45,1146.37Z" transform="translate(-1098.996 -750.968)"/><path class="n" d="M2063.815,1135.61a9.671,9.671,0,0,1,4.492,3.009c2.074,2.283,3.382,15.07,3.382,15.07l-7.166,1.134-.573-6.186-1.911-2.828Z" transform="translate(-1196.008 -742.078)"/><path class="a" d="M196.274,229.223H180.236a.376.376,0,0,1,0-.753h16.037a.376.376,0,0,1,0,.753Z" transform="translate(537.305 186.638)"/><path class="a" d="M188.068,193.113h-6.822a.376.376,0,1,1,0-.753h6.822a.376.376,0,0,1,0,.753Z" transform="translate(536.675 209.161)"/><path class="a" d="M212.932,161.953H182.746a.376.376,0,0,1,0-.753h30.186a.376.376,0,1,1,0,.753Z" transform="translate(535.74 228.596)"/><path class="a" d="M212.932,128.173H182.746a.376.376,0,1,1,0-.753h30.186a.376.376,0,1,1,0,.753Z" transform="translate(535.74 249.664)"/><rect class="q" width="108" height="7" transform="translate(715 377)"/><rect class="q" width="108" height="7" transform="translate(715 388)"/><rect class="q" width="23" height="23" transform="translate(687 376)"/><rect class="q" width="23" height="24" transform="translate(687 408)"/><rect class="q" width="23" height="23" transform="translate(687 441)"/><rect class="q" width="24" height="7" transform="translate(687 473)"/><rect class="a" width="17" height="16" transform="translate(690 379)"/><path class="r" d="M691.155,414.18h-82.3a5.157,5.157,0,0,0-5.147,5.165v34.076a5.156,5.156,0,0,0,5.147,5.165h64.793c2.627,3.672,7.376,10.247,7.8,10.247.393,0-.364-6.211-.9-10.247h10.6a5.156,5.156,0,0,0,5.147-5.165V419.345A5.156,5.156,0,0,0,691.155,414.18Z" transform="translate(32.622 -52.04)"/><path class="a" d="M705.731,496.349H665.385a.115.115,0,0,1-.115-.115v-2.02a.115.115,0,0,1,.115-.115h40.346a.115.115,0,0,1,.115.115v2.02A.115.115,0,0,1,705.731,496.349Z" transform="translate(-20.402 -120.904)"/><path class="a" d="M682.634,539.289h-17.25a.115.115,0,0,1-.115-.115v-2.02a.115.115,0,0,1,.115-.115h17.25a.116.116,0,0,1,.116.115v2.02A.116.116,0,0,1,682.634,539.289Z" transform="translate(-20.357 -157.964)"/><path class="a" d="M860.235,539.289H806.065a.115.115,0,0,1-.115-.115v-2.02a.115.115,0,0,1,.115-.115h54.171a.115.115,0,0,1,.115.115v2.02A.115.115,0,0,1,860.235,539.289Z" transform="translate(-141.867 -157.964)"/><path class="a" d="M1017.916,496.349H988.855a.115.115,0,0,1-.115-.115v-2.02a.115.115,0,0,1,.115-.115h29.061a.115.115,0,0,1,.116.115v2.02a.115.115,0,0,1-.116.115Z" transform="translate(-299.565 -120.904)"/><path class="a" d="M739.169,623.425H665.385a.115.115,0,0,1-.115-.116v-2.024a.115.115,0,0,1,.115-.115h73.785a.115.115,0,0,1,.116.115V623.3a.115.115,0,0,1-.116.116Z" transform="translate(-20.479 -230.573)"/><path class="a" d="M703.393,582.229H665.385a.115.115,0,0,1-.115-.115v-2.02a.115.115,0,0,1,.115-.115h38.008a.115.115,0,0,1,.115.115v2.02A.115.115,0,0,1,703.393,582.229Z" transform="translate(-20.397 -195.024)"/><path class="a" d="M991.366,582.229H958.045a.115.115,0,0,1-.115-.115v-2.02a.115.115,0,0,1,.115-.115h33.321a.115.115,0,0,1,.116.115v2.02a.115.115,0,0,1-.116.115Z" transform="translate(-272.986 -195.024)"/><path class="a" d="M1723.872,331.389h25.093a.1.1,0,0,0,.1-.1v-1.8a.1.1,0,0,0-.1-.1h-25.093a.1.1,0,0,0-.1.1v1.8a.1.1,0,0,0,.1.1" transform="translate(-976.943 14.505)"/><rect class="a" width="17" height="17" transform="translate(690 444)"/><path class="s" d="M1748.965,331.389h-25.093a.1.1,0,0,1-.1-.1v-1.8a.1.1,0,0,1,.1-.1h25.093a.1.1,0,0,1,.1.1v1.8a.1.1,0,0,1-.1.1" transform="translate(-976.943 14.505)"/><path class="r" d="M1663.338,231.35h73.525a4.607,4.607,0,0,1,4.593,4.614v30.445a4.607,4.607,0,0,1-4.6,4.614h-57.883c-2.342,3.28-6.59,9.154-6.966,9.154-.351,0,.325-5.548.8-9.154h-9.472a4.606,4.606,0,0,1-4.6-4.614V235.964A4.605,4.605,0,0,1,1663.338,231.35Z" transform="translate(-921.205 98.982)"/><path class="a" d="M2079.052,352.265h14.975a.1.1,0,0,0,.1-.1v-1.8a.1.1,0,0,0-.1-.1h-14.975a.1.1,0,0,0-.1.1v1.8a.1.1,0,0,0,.1.1Z" transform="translate(-1283.422 -3.487)"/><path class="a" d="M1930.644,352.265h18.478a.1.1,0,0,0,.1-.1v-1.8a.1.1,0,0,0-.1-.1h-18.478a.105.105,0,0,0-.1.1v1.8a.1.1,0,0,0,.1.1Z" transform="translate(-1155.359 -3.487)"/><path class="a" d="M1724.664,352.265h25.906a.1.1,0,0,0,.1-.1v-1.8a.1.1,0,0,0-.1-.1h-25.906a.105.105,0,0,0-.1.1v1.8a.1.1,0,0,0,.1.1Z" transform="translate(-977.63 -3.487)"/><path class="a" d="M1723.864,445.265h64.083a.1.1,0,0,0,.1-.1v-1.8a.1.1,0,0,0-.1-.1h-64.084a.1.1,0,0,0-.1.1v1.8a.1.1,0,0,0,.1.1Z" transform="translate(-977.193 -83.629)"/><path class="a" d="M1948.644,399.263h33a.1.1,0,0,0,.1-.1v-1.807a.1.1,0,0,0-.1-.1h-33a.1.1,0,0,0-.1.1v1.8a.1.1,0,0,0,.1.1Z" transform="translate(-1170.993 -43.98)"/><path class="a" d="M1723.872,399.263H1753.1a.1.1,0,0,0,.1-.1v-1.807a.105.105,0,0,0-.1-.1h-29.224a.1.1,0,0,0-.1.1v1.8a.1.1,0,0,0,.1.1Z" transform="translate(-976.968 -43.98)"/><path class="t" d="M1335.207,1129.339c-.029-.047-.058-.1-.087-.146-.07-.118-.138-.238-.21-.362.07.124.138.245.21.362.029.05.058.1.087.146" transform="translate(-628.222 -675.705)"/><path class="t" d="M1334.87,1128.711v0" transform="translate(-628.187 -675.59)"/><path class="t" d="M1334.76,1128.58h0" transform="translate(-628.092 -675.487)"/><rect class="q" width="108" height="7" transform="translate(715 410)"/><rect class="q" width="108" height="7" transform="translate(715 442)"/><rect class="q" width="108" height="3" transform="translate(715 474)"/><rect class="q" width="108" height="7" transform="translate(715 421)"/><rect class="q" width="108" height="7" transform="translate(715 454)"/><rect class="a" width="17" height="16" transform="translate(690 412)"/></g></svg>