<svg xmlns="http://www.w3.org/2000/svg" xmlns:xlink="http://www.w3.org/1999/xlink" width="126" height="52" viewBox="0 0 126 52">
  <defs>
    <clipPath id="clip-Custom_Size_1">
      <rect width="126" height="52"/>
    </clipPath>
  </defs>
  <g id="Custom_Size_1" data-name="Custom Size – 1" clip-path="url(#clip-Custom_Size_1)">
    <rect width="126" height="52" fill="#fff"/>
    <g id="Group_1" data-name="Group 1">
      <path id="Vector" d="M1.754.679a1.343,1.343,0,0,0-.912.352,1.161,1.161,0,0,0-.379.849V51.5a1.161,1.161,0,0,0,.379.849,1.343,1.343,0,0,0,.912.352H125.261a1.342,1.342,0,0,0,.912-.352,1.164,1.164,0,0,0,.379-.849V1.879a1.164,1.164,0,0,0-.379-.849,1.343,1.343,0,0,0-.912-.352Z" transform="translate(-0.463 -0.679)" fill="#ea5042"/>
      <path id="Path_40-2" data-name="Path 40-2" d="M1.873.41a.838.838,0,0,0-.657.407,1.721,1.721,0,0,0-.271.956,1.721,1.721,0,0,0,.271.956.838.838,0,0,0,.657.407h25.46a.693.693,0,0,0,.362-.095A.989.989,0,0,0,28,2.753a1.486,1.486,0,0,0,.21-.437,1.929,1.929,0,0,0,.012-1.043,1.526,1.526,0,0,0-.2-.447,1.025,1.025,0,0,0-.3-.3.706.706,0,0,0-.36-.112H1.873Z" transform="translate(42.055 14.59)" fill="#fff"/>
      <path id="Path_40" data-name="Path 40" d="M2.387.141A1.521,1.521,0,0,0,1.366.548,1.315,1.315,0,0,0,.945,1.5a1.315,1.315,0,0,0,.421.956,1.521,1.521,0,0,0,1.021.407H41.954A1.527,1.527,0,0,0,43,2.483a1.319,1.319,0,0,0,.446-.957,1.313,1.313,0,0,0-.412-.97A1.52,1.52,0,0,0,42,.141H2.387Z" transform="translate(42.055 24.859)" fill="#fff"/>
      <path id="Vector-1" d="M13.1,23.345c6.921,0,12.532-5.218,12.532-11.654S20.024.037,13.1.037.571,5.255.571,11.691,6.182,23.345,13.1,23.345Z" transform="translate(14.429 11.963)" fill="#fff"/>
      <path id="Path_40-2-2" data-name="Path 40" d="M2.387.141A1.521,1.521,0,0,0,1.366.548,1.315,1.315,0,0,0,.945,1.5a1.315,1.315,0,0,0,.421.956,1.521,1.521,0,0,0,1.021.407H41.954A1.527,1.527,0,0,0,43,2.483a1.319,1.319,0,0,0,.446-.957,1.313,1.313,0,0,0-.412-.97A1.52,1.52,0,0,0,42,.141H2.387Z" transform="translate(42.055 34.859)" fill="#fff"/>
    </g>
  </g>
</svg>