<svg xmlns="http://www.w3.org/2000/svg" xmlns:xlink="http://www.w3.org/1999/xlink" width="221.495" height="216.29" viewBox="0 0 221.495 216.29">
  <defs>
    <linearGradient id="linear-gradient" x1="0.5" x2="0.5" y2="1" gradientUnits="objectBoundingBox">
      <stop offset="0" stop-color="#4475f3"/>
      <stop offset="1" stop-color="#7d9ce8"/>
    </linearGradient>
    <linearGradient id="linear-gradient-4" x1="0.5" x2="0.5" y2="1" gradientUnits="objectBoundingBox">
      <stop offset="0" stop-color="#e6e6e6"/>
      <stop offset="0.054" stop-color="#e5e5e5"/>
      <stop offset="1" stop-color="#cecece"/>
    </linearGradient>
    <linearGradient id="linear-gradient-6" x1="0.089" y1="-0.037" x2="0.854" y2="0.854" gradientUnits="objectBoundingBox">
      <stop offset="0" stop-color="#fef9c6"/>
      <stop offset="0.468" stop-color="#fec200"/>
      <stop offset="1" stop-color="#f94b4b"/>
    </linearGradient>
    <filter id="Ellipse_911" x="60.894" y="0" width="130.997" height="130.997" filterUnits="userSpaceOnUse">
      <feOffset dy="3" input="SourceAlpha"/>
      <feGaussianBlur stdDeviation="3" result="blur"/>
      <feFlood flood-opacity="0.361"/>
      <feComposite operator="in" in2="blur"/>
      <feComposite in="SourceGraphic"/>
    </filter>
  </defs>
  <g id="Group_6908" data-name="Group 6908" transform="translate(-1168 -381.674)">
    <path id="star" d="M7.14,19.7,5.517,29.662a.962.962,0,0,0,1.413,1l8.442-4.672,8.442,4.674a.962.962,0,0,0,1.413-1L23.6,19.7l6.866-7.048a.963.963,0,0,0-.542-1.623L20.476,9.582,16.24.545a1,1,0,0,0-1.738,0L10.267,9.58.816,11.026a.962.962,0,0,0-.542,1.623Z" transform="translate(1168 566.684)" fill="url(#linear-gradient)"/>
    <path id="star-2" data-name="star" d="M7.267,20.017,5.615,30.143a.979.979,0,0,0,1.438,1.013l8.592-4.748,8.592,4.75a.978.978,0,0,0,1.438-1.013L24.023,20.018l6.988-7.163a.978.978,0,0,0-.551-1.649L20.841,9.736,16.529.553a1.018,1.018,0,0,0-1.769,0L10.45,9.735.831,11.2a.977.977,0,0,0-.551,1.649Z" transform="translate(1215.551 566.684)" fill="url(#linear-gradient)"/>
    <path id="star-3" data-name="star" d="M7.267,20.017,5.615,30.143a.979.979,0,0,0,1.438,1.013l8.592-4.748,8.592,4.75a.978.978,0,0,0,1.438-1.013L24.023,20.018l6.988-7.163a.978.978,0,0,0-.551-1.649L20.841,9.736,16.529.553a1.018,1.018,0,0,0-1.769,0L10.45,9.735.831,11.2a.977.977,0,0,0-.551,1.649Z" transform="translate(1263.103 566.684)" fill="url(#linear-gradient)"/>
    <path id="star-4" data-name="star" d="M7.267,20.017,5.615,30.143a.979.979,0,0,0,1.438,1.013l8.592-4.748,8.592,4.75a.978.978,0,0,0,1.438-1.013L24.023,20.018l6.988-7.163a.978.978,0,0,0-.551-1.649L20.841,9.736,16.529.553a1.018,1.018,0,0,0-1.769,0L10.45,9.735.831,11.2a.977.977,0,0,0-.551,1.649Z" transform="translate(1310.654 566.684)" fill="url(#linear-gradient-4)"/>
    <path id="star-5" data-name="star" d="M7.267,20.017,5.615,30.143a.979.979,0,0,0,1.438,1.013l8.592-4.748,8.592,4.75a.978.978,0,0,0,1.438-1.013L24.023,20.018l6.988-7.163a.978.978,0,0,0-.551-1.649L20.841,9.736,16.529.553a1.018,1.018,0,0,0-1.769,0L10.45,9.735.831,11.2a.977.977,0,0,0-.551,1.649Z" transform="translate(1358.205 566.684)" fill="url(#linear-gradient-4)"/>
    <g transform="matrix(1, 0, 0, 1, 1168, 381.67)" filter="url(#Ellipse_911)">
      <circle id="Ellipse_911-2" data-name="Ellipse 911" cx="56.498" cy="56.498" r="56.498" transform="translate(69.89 6)" fill="url(#linear-gradient-6)"/>
    </g>
    <path id="Path_7454" data-name="Path 7454" d="M146.977,293.478c6.05,13.957-6.854,32.988-28.833,42.541s-44.7,5.993-50.755-7.965,4.423-34.94,26.4-44.475S140.946,279.54,146.977,293.478Z" transform="translate(1178.642 110.528)" fill="#fff" opacity="0.23"/>
    <g id="Group_6430" data-name="Group 6430" transform="translate(1323.528 418.523) rotate(90)">
      <g id="Group_6429" data-name="Group 6429">
        <path id="Path_6813" data-name="Path 6813" d="M26,127.817a4.7,4.7,0,0,1,4.692-4.692h8.756a29.457,29.457,0,0,1-1.8-11.2,13.361,13.361,0,0,1,.083-1.349,4.691,4.691,0,0,1,9.381.113v1.173c0,7.419,9.526,11.587,16.715,13.374a3.524,3.524,0,0,1,3.225-2.114h11.73a1.173,1.173,0,0,1,1.173,1.173V152.45a1.173,1.173,0,0,1-1.173,1.173H67.054a3.523,3.523,0,0,1-3.214-2.089q-.893.229-1.658.43a38.044,38.044,0,0,1-11.838,1.659H37.73a4.689,4.689,0,0,1-3.9-7.3,4.706,4.706,0,0,1-2.355-7.041,4.69,4.69,0,0,1-2.337-7.035A4.693,4.693,0,0,1,26,127.817ZM65.881,150.1a1.174,1.174,0,0,0,1.173,1.173H77.611V125.471H67.054a1.174,1.174,0,0,0-1.173,1.173ZM30.692,130.163h5.865a1.173,1.173,0,0,1,0,2.346H33.038a2.346,2.346,0,0,0,0,4.692H38.9a1.173,1.173,0,1,1,0,2.346H35.384a2.346,2.346,0,0,0,0,4.692h5.865a1.173,1.173,0,1,1,0,2.346H37.73a2.346,2.346,0,0,0,0,4.692H50.344a35.784,35.784,0,0,0,11.245-1.583q.887-.232,1.946-.5v-21.6c-8.489-2.022-18.767-6.957-18.767-15.721v-1.173a2.346,2.346,0,0,0-4.692,0v0c0,.51-.636,6.766,1.915,12.434h3.95a1.173,1.173,0,0,1,0,2.346H30.692a2.346,2.346,0,0,0,0,4.692Z" transform="translate(-26 -106)" fill="#fff"/>
      </g>
    </g>
  </g>
</svg>
